<svg width="2542" height="1376" viewBox="0 0 2542 1376" fill="none" xmlns="http://www.w3.org/2000/svg">
<g clip-path="url(#clip0_1_113)">
<path d="M837.131 1376C760.429 1376 683.84 1374.52 607.367 1371.55C498.095 1367.31 385.103 1362.93 280.081 1300.04C206.614 1256.04 141.547 1185.45 91.9171 1095.9C58.7452 1035.21 34.4221 969.357 19.8022 900.669C-7.4696 775.614 -6.54069 645.316 22.5108 520.729C32.6916 478.013 46.7264 436.478 64.414 396.72C141.002 225.462 280.694 110.502 447.671 81.3176C449.05 81.1243 450.444 81.0922 451.83 81.2217C452.581 81.2651 453.329 81.3116 454.093 81.2771L455.075 80.9399C457.593 79.9947 460.18 79.2778 462.809 78.7966C720.332 37.3989 992.572 121.161 1250.08 321.021C1449.18 475.574 1713.04 558.798 2056.75 575.449L2061.63 575.725C2157.32 581.66 2249.87 624.255 2329.3 698.912C2407.69 772.598 2466.56 870.909 2499.52 983.221C2503.57 996.914 2507.29 1011.17 2510.56 1025.58C2513.61 1038.98 2513.4 1053 2509.94 1066.28C2506.48 1079.56 2499.9 1091.65 2490.83 1101.37V1101.4L2489.98 1102.35C2487.92 1104.56 2485.75 1106.68 2483.53 1108.66L2480.93 1110.98C2458.96 1130.52 2441.61 1145.95 2420.85 1157.94C2407 1165.88 2392.27 1171.88 2377.02 1175.81C2293.26 1197.86 2208.2 1218.3 2124.21 1236.57C1961.09 1272.09 1793.67 1301.38 1626.6 1323.65C1364.68 1358.52 1101.03 1376 837.131 1376ZM449.877 87.2872C449.364 87.282 448.851 87.3196 448.344 87.3996C282.927 116.311 144.558 230.143 68.7295 399.706C51.2165 439.069 37.3205 480.193 27.241 522.485C-1.54577 645.968 -2.46313 775.108 24.5661 899.053C39.0429 967.083 63.1301 1032.3 95.9818 1092.42C145.126 1181.09 209.527 1250.97 282.225 1294.5C386.304 1356.84 498.763 1361.2 607.521 1365.41C947.676 1378.54 1288.26 1362.53 1626.07 1317.54C1793.03 1295.29 1960.34 1266.02 2123.36 1230.52C2207.29 1212.26 2292.29 1191.84 2376 1169.8C2390.88 1165.97 2405.25 1160.12 2418.77 1152.37C2439.11 1140.62 2456.3 1125.34 2478.05 1105.98L2480.66 1103.67C2482.56 1101.97 2484.43 1100.15 2486.22 1098.26L2486.74 1097.68C2504.62 1078.22 2511.57 1052.55 2505.81 1027.25V1027.25C2502.57 1012.99 2498.9 998.887 2494.89 985.335C2427.54 755.902 2253.34 593.761 2061.4 581.858L2056.55 581.582C1899.54 573.974 1762.15 552.902 1636.55 517.153C1486.6 474.48 1355.69 410.242 1247.46 326.228C990.938 127.134 719.837 43.6833 463.438 84.8846C461.043 85.3308 458.686 85.9905 456.392 86.857L454.622 87.3921C453.616 87.4407 452.608 87.4277 451.603 87.3531C451.011 87.3202 450.438 87.2872 449.877 87.2872Z" fill="#F0F0F0"/>
<path d="M794.017 448.317C786.916 440.961 779.653 399.937 770.587 395.773C777.364 411.945 772.444 416.226 772.408 433.975C772.493 444.053 771.403 454.102 769.163 463.886H615.594V334.47C615.594 322.842 617.714 311.328 621.835 300.584C625.956 289.841 631.996 280.08 639.611 271.857C647.226 263.635 656.266 257.112 666.215 252.663C676.164 248.213 686.827 245.923 697.596 245.923C701.706 246.01 705.79 246.655 709.751 247.844C722.951 251.693 734.981 259.221 744.636 269.675C754.29 280.129 761.229 293.14 764.757 307.404C776.464 353.611 795.084 430.526 794.017 448.317Z" fill="#2F2E41"/>
<path d="M624.605 607.523L624.681 506.651L569.768 511.95L589.148 575.569L580.078 735.479C575.679 736.545 571.662 738.97 568.518 742.458C565.373 745.947 563.236 750.348 562.368 755.125C561.499 759.902 561.937 764.849 563.627 769.362C565.317 773.875 568.187 777.759 571.887 780.542C575.586 783.324 579.955 784.884 584.462 785.032C588.968 785.179 593.417 783.907 597.265 781.372C601.114 778.836 604.196 775.146 606.136 770.752C608.076 766.358 608.79 761.449 608.191 756.624L624.605 607.523Z" fill="#FFB6B6"/>
<path d="M732.671 1328.35L754.855 1328.35L765.409 1235.95H732.665L732.671 1328.35Z" fill="#FFB6B6"/>
<path d="M725.157 1316.54L760.227 1314.28V1330.5L793.568 1355.37C795.215 1356.59 796.456 1358.36 797.108 1360.4C797.761 1362.44 797.791 1364.66 797.196 1366.72C796.6 1368.78 795.41 1370.59 793.798 1371.87C792.185 1373.15 790.237 1373.84 788.235 1373.84H746.484L739.287 1357.79L736.477 1373.84H720.735L725.157 1316.54Z" fill="#2F2E41"/>
<path d="M604.395 1328.35L626.582 1328.35L637.134 1235.95H604.393L604.395 1328.35Z" fill="#FFB6B6"/>
<path d="M596.883 1316.54L631.953 1314.28V1330.5L665.294 1355.37C666.941 1356.59 668.182 1358.36 668.834 1360.4C669.487 1362.44 669.518 1364.66 668.922 1366.72C668.326 1368.78 667.136 1370.59 665.524 1371.87C663.912 1373.15 661.963 1373.84 659.961 1373.84H618.21L611.013 1357.79L608.203 1373.84H592.461L596.883 1316.54Z" fill="#2F2E41"/>
<path d="M712.915 397.719L666.958 398.692L634.517 435.668L608.51 439.786C596.745 441.65 585.929 447.817 577.869 457.257C569.809 466.698 564.995 478.839 564.23 491.652L568.735 518.377H595.769L611.408 617.53C605.327 634.262 604.914 647.47 617.396 652.657L656.144 731.474L770.587 676.011C776.391 665.236 778.251 654.415 772.318 643.891L780.5 492.104H808.009C808.009 463.715 799.116 439.783 772.989 436.624C762.613 435.411 752.187 434.767 741.751 434.694L712.915 397.719Z" fill="#E6E6E6"/>
<path d="M770.587 676.011C770.587 676.011 658.848 697.418 617.396 652.658C617.396 652.658 613.188 660.372 606.846 673.166C605.023 676.846 601.501 679.338 599.374 683.795C597.44 687.846 592.468 692.825 590.362 697.419C588.668 701.115 591.386 705.945 589.623 709.937C568.395 758.017 543.593 825.837 548.911 870.621C552.339 899.501 559.422 966.701 566.88 1038.88C567.463 1044.52 562.743 1051.76 563.329 1057.45C563.881 1062.81 569.739 1066.6 570.292 1071.98C570.658 1075.54 566.567 1079.18 566.933 1082.75C567.334 1086.65 572.192 1090.49 572.592 1094.38C582.809 1194.04 592.165 1287.09 592.165 1287.09H644.43L654.291 1074.58L646.232 997.117L665.156 840.456L691.288 989.333L694.65 1073.12L722.267 1290.98H770.587V1080.08L774.192 1069.12L770.587 1055.07L774.192 1039.93L770.587 1023.44V676.011Z" fill="#2F2E41"/>
<path d="M727.021 368.941C719.902 379.152 709.775 386.441 698.307 389.607C686.839 392.774 674.714 391.628 663.93 386.36C653.145 381.091 644.344 372.014 638.975 360.622C633.607 349.231 631.991 336.205 634.394 323.69C636.797 311.174 643.075 299.915 652.195 291.768C661.316 283.62 672.734 279.069 684.569 278.865C696.404 278.66 707.951 282.814 717.308 290.643C726.665 298.471 733.274 309.507 736.047 321.933C736.197 322.607 736.323 323.278 736.446 323.974C737.91 331.762 737.827 339.798 736.203 347.549C734.578 355.301 731.449 362.592 727.021 368.941Z" fill="#FFB6B6"/>
<path d="M716.159 336.845C715.054 330.856 712.259 325.383 708.158 321.178C708.562 326.918 707.825 332.684 705.995 338.09C692.294 339.4 678.531 336.456 666.327 329.605C657.136 322.872 645.439 323.455 631.814 329.605C631.813 322.449 633.118 315.363 635.654 308.751C638.189 302.14 641.907 296.133 646.593 291.072C651.279 286.012 656.842 281.999 662.965 279.26C669.088 276.522 675.65 275.113 682.277 275.114H691.288C704.671 275.117 717.505 280.859 726.968 291.077C736.432 301.296 741.749 315.154 741.751 329.605C733.435 332.826 724.871 335.249 716.159 336.845Z" fill="#2F2E41"/>
<path d="M321.923 1031.35C401.989 1031.35 466.896 961.263 466.896 874.806C466.896 788.349 401.989 718.262 321.923 718.262C241.856 718.262 176.95 788.349 176.95 874.806C176.95 961.263 241.856 1031.35 321.923 1031.35Z" fill="#F0F0F0"/>
<path d="M2397.03 1055.91C2477.09 1055.91 2542 985.819 2542 899.362C2542 812.905 2477.09 742.818 2397.03 742.818C2316.96 742.818 2252.05 812.905 2252.05 899.362C2252.05 985.819 2316.96 1055.91 2397.03 1055.91Z" fill="#F0F0F0"/>
<path d="M1393.75 119.068C1393.75 118.095 1394.11 117.162 1394.74 116.474C1395.38 115.786 1396.25 115.399 1397.15 115.398H1420.26C1421.16 115.401 1422.02 115.789 1422.66 116.477C1423.29 117.165 1423.65 118.097 1423.65 119.068C1423.65 120.04 1423.29 120.971 1422.66 121.659C1422.02 122.347 1421.16 122.735 1420.26 122.738H1397.15C1396.25 122.737 1395.38 122.35 1394.74 121.662C1394.11 120.974 1393.75 120.041 1393.75 119.068Z" fill="#3F3D56"/>
<path d="M1433.17 122.738C1435.05 122.738 1436.57 121.095 1436.57 119.068C1436.57 117.041 1435.05 115.398 1433.17 115.398C1431.3 115.398 1429.78 117.041 1429.78 119.068C1429.78 121.095 1431.3 122.738 1433.17 122.738Z" fill="#3F3D56"/>
<path d="M693.824 830H313.52C308.119 829.985 302.944 827.662 299.124 823.539C295.305 819.415 293.153 813.827 293.139 807.995V607.898C293.152 602.066 295.304 596.477 299.123 592.353C302.941 588.229 308.116 585.905 313.517 585.89H693.822C699.222 585.905 704.398 588.228 708.217 592.351C712.036 596.475 714.188 602.063 714.203 607.895V807.992C714.189 813.824 712.038 819.413 708.219 823.537C704.4 827.661 699.225 829.984 693.824 830Z" fill="white"/>
<path d="M693.824 830H313.52C308.119 829.985 302.944 827.662 299.124 823.539C295.305 819.415 293.153 813.827 293.139 807.995V607.898C293.152 602.066 295.304 596.477 299.123 592.353C302.941 588.229 308.116 585.905 313.517 585.89H693.822C699.222 585.905 704.398 588.228 708.217 592.351C712.036 596.475 714.188 602.063 714.203 607.895V807.992C714.189 813.824 712.038 819.413 708.219 823.537C704.4 827.661 699.225 829.984 693.824 830ZM313.52 592.029C309.625 592.041 305.894 593.718 303.14 596.692C300.386 599.666 298.835 603.695 298.824 607.901V807.992C298.835 812.198 300.387 816.227 303.142 819.201C305.896 822.174 309.628 823.85 313.523 823.861H693.819C697.714 823.85 701.446 822.174 704.201 819.2C706.955 816.225 708.507 812.195 708.518 807.989V607.898C708.506 603.693 706.954 599.663 704.2 596.689C701.445 593.716 697.713 592.041 693.819 592.029L313.52 592.029Z" fill="#3F3D56"/>
<path d="M524.055 800.429C449.05 800.429 370.841 799.655 341.661 799.153C337.821 799.068 334.165 797.365 331.473 794.409C328.78 791.452 327.265 787.476 327.25 783.329V617.694C327.251 616.209 327.797 614.786 328.769 613.734C329.74 612.683 331.057 612.09 332.432 612.085H674.897C676.272 612.086 677.59 612.676 678.564 613.724C679.537 614.773 680.086 616.195 680.092 617.679V730.06C680.027 748.404 673.308 765.991 661.373 779.047C649.439 792.103 633.242 799.589 616.255 799.898C589.059 800.28 556.855 800.429 524.055 800.429Z" fill="#2B78E4"/>
<path d="M654.569 719.735H345.124C342.533 719.727 340.007 718.859 337.89 717.246C335.772 715.634 334.165 713.357 333.288 710.725L298.263 604.623C297.588 602.577 297.378 600.385 297.65 598.233C297.922 596.081 298.668 594.03 299.826 592.254C300.984 590.478 302.52 589.027 304.304 588.025C306.089 587.022 308.07 586.497 310.082 586.492L696.882 585.911C698.721 585.909 700.537 586.342 702.204 587.181C703.871 588.019 705.347 589.242 706.529 590.763C707.71 592.284 708.568 594.067 709.043 595.985C709.517 597.903 709.596 599.911 709.274 601.865L709.572 602.002L708.462 604.8L708.451 604.828L666.11 711.51C665.146 713.952 663.537 716.034 661.485 717.497C659.433 718.959 657.028 719.738 654.569 719.735ZM696.9 592.05L310.093 592.631C308.991 592.633 307.905 592.921 306.928 593.47C305.95 594.019 305.109 594.814 304.474 595.787C303.84 596.76 303.431 597.883 303.282 599.062C303.133 600.241 303.248 601.441 303.618 602.562L338.641 708.659C339.122 710.102 340.003 711.349 341.164 712.232C342.325 713.116 343.709 713.592 345.129 713.596H654.569C655.915 713.597 657.231 713.171 658.354 712.371C659.477 711.57 660.357 710.431 660.884 709.094L703.226 602.409C703.675 601.279 703.857 600.046 703.756 598.821C703.655 597.596 703.273 596.417 702.646 595.39C702.019 594.364 701.166 593.521 700.163 592.938C699.16 592.355 698.039 592.05 696.9 592.05Z" fill="#3F3D56"/>
<path d="M503.094 742.831C516.476 742.831 527.324 731.117 527.324 716.666C527.324 702.216 516.476 690.502 503.094 690.502C489.711 690.502 478.863 702.216 478.863 716.666C478.863 731.117 489.711 742.831 503.094 742.831Z" fill="white"/>
<path d="M2334.86 869.036L2270.13 800.033C2266.98 796.648 2263.24 793.967 2259.13 792.144C2255.02 790.322 2250.61 789.394 2246.17 789.413H2245.94C2241.46 789.427 2237.03 790.4 2232.9 792.276C2228.78 794.151 2225.03 796.892 2221.89 800.34C2207.42 816.156 2199.19 837.414 2198.93 859.647C2198.67 881.879 2206.4 903.355 2220.5 919.559C2221.18 920.358 2221.89 921.125 2222.6 921.892C2226.54 926.118 2230.89 929.874 2235.57 933.096C2248.36 942.024 2263.28 946.747 2278.52 946.694H2279C2289.46 946.655 2299.8 944.378 2309.44 939.995C2319.08 935.611 2327.81 929.208 2335.14 921.156C2341.49 914.197 2345.03 904.803 2344.98 895.032C2344.93 885.262 2341.29 875.913 2334.86 869.036ZM2331.11 916.828C2319.09 929.9 2303.27 938.1 2286.3 940.046C2269.34 941.992 2252.28 937.564 2237.98 927.509C2233.89 924.588 2230.08 921.247 2226.58 917.534C2212.64 902.66 2204.73 882.413 2204.61 861.247C2204.49 840.081 2212.16 819.729 2225.93 804.668C2228.55 801.787 2231.67 799.498 2235.12 797.933C2238.56 796.367 2242.26 795.558 2246 795.552H2246.17C2249.87 795.538 2253.54 796.311 2256.96 797.828C2260.39 799.345 2263.5 801.575 2266.12 804.392L2330.85 873.425C2336.21 879.147 2339.25 886.932 2339.29 895.069C2339.34 903.207 2336.4 911.032 2331.11 916.828Z" fill="#3F3D56"/>
<path d="M2122.49 642.568L2057.76 573.535C2051.39 566.709 2042.77 562.89 2033.8 562.915H2033.6C2029.12 562.934 2024.68 563.912 2020.55 565.793C2016.41 567.674 2012.67 570.42 2009.52 573.873C1997.56 586.994 1989.8 603.908 1987.39 622.136C1984.97 640.365 1988.03 658.949 1996.11 675.166L1996.13 675.196C1999.47 681.829 2003.61 687.951 2008.44 693.399C2008.98 694.074 2009.61 694.749 2010.23 695.425C2025.1 711.356 2045.2 720.275 2066.15 720.226H2066.66C2077.12 720.179 2087.46 717.895 2097.1 713.506C2106.73 709.118 2115.47 702.712 2122.8 694.657C2125.95 691.215 2128.44 687.137 2130.12 682.656C2131.81 678.175 2132.67 673.38 2132.64 668.542C2132.61 663.705 2131.7 658.922 2129.95 654.465C2128.21 650.008 2125.68 645.966 2122.49 642.568ZM2118.74 690.36C2111.93 697.834 2103.82 703.779 2094.88 707.851C2085.94 711.924 2076.34 714.043 2066.63 714.087H2066.15C2051.57 714.081 2037.32 709.421 2025.19 700.694C2013.06 691.966 2003.59 679.56 1997.98 665.037C1992.36 650.513 1990.84 634.521 1993.62 619.07C1996.4 603.619 2003.35 589.4 2013.59 578.201C2018.89 572.415 2026.1 569.137 2033.63 569.085C2041.17 569.033 2048.41 572.212 2053.78 577.924L2118.51 646.927C2123.86 652.659 2126.89 660.451 2126.94 668.593C2126.98 676.735 2124.03 684.563 2118.74 690.36Z" fill="#3F3D56"/>
<path d="M2339 890.729L2267.64 814.626C2262.96 809.646 2256.64 806.875 2250.07 806.919C2243.5 806.963 2237.22 809.819 2232.6 814.86C2226.81 821.167 2222.24 828.643 2219.14 836.86C2216.03 845.077 2214.46 853.874 2214.5 862.748C2214.55 871.622 2216.22 880.4 2219.41 888.578C2222.6 896.757 2227.25 904.176 2233.1 910.412C2238.94 916.648 2245.87 921.579 2253.48 924.922C2261.1 928.264 2269.25 929.954 2277.46 929.894C2285.68 929.834 2293.81 928.025 2301.38 924.572C2308.95 921.118 2315.82 916.087 2321.58 909.766L2339 890.729Z" fill="#2B78E4"/>
<path d="M2126.64 664.249L2055.28 588.146C2050.6 583.167 2044.28 580.395 2037.71 580.439C2031.14 580.483 2024.86 583.339 2020.24 588.381C2014.46 594.688 2009.88 602.163 2006.78 610.38C2003.67 618.597 2002.1 627.394 2002.15 636.268C2002.19 645.143 2003.86 653.92 2007.05 662.098C2010.24 670.277 2014.89 677.696 2020.74 683.932C2026.58 690.168 2033.51 695.099 2041.13 698.442C2048.74 701.785 2056.89 703.474 2065.11 703.414C2073.32 703.354 2081.45 701.546 2089.02 698.092C2096.59 694.638 2103.46 689.607 2109.23 683.286L2126.64 664.249Z" fill="#2B78E4"/>
<path d="M2260.58 938.13L2258.88 942.98C2250.86 939.695 2243.09 936.401 2235.57 933.096C2102.31 874.376 2038.69 805.65 1996.13 675.197L1996.11 675.166C1994.09 669.027 1992.13 662.745 1990.22 656.32L1994.71 654.754C1996.21 660.934 1998.41 666.892 2001.25 672.496C2003.58 679.648 2005.98 686.616 2008.44 693.399C2048.44 803.502 2107.42 866.427 2220.5 919.56C2226.19 922.23 2232.01 924.88 2237.98 927.51C2244.91 932.386 2252.55 935.976 2260.58 938.13Z" fill="#3F3D56"/>
<path d="M2056.58 714.639L2052.58 719.008L2200.22 876.466L2204.21 872.097L2056.58 714.639Z" fill="#3F3D56"/>
<path d="M806.632 584.17L806.708 483.298L751.795 488.597L771.175 552.216L700.829 667.366C696.43 668.432 692.413 670.857 689.268 674.345C686.124 677.833 683.987 682.234 683.119 687.011C682.25 691.788 682.688 696.735 684.378 701.248C686.068 705.761 688.938 709.646 692.637 712.428C696.337 715.211 700.706 716.771 705.212 716.918C709.719 717.065 714.167 715.794 718.016 713.258C721.864 710.723 724.947 707.033 726.887 702.638C728.827 698.244 729.541 693.335 728.942 688.51L806.632 584.17Z" fill="#FFB6B6"/>
<path d="M1170.71 328.77C1167.02 328.77 1163.59 328.14 1160.42 326.88C1157.29 325.573 1154.54 323.753 1152.16 321.42C1149.82 319.087 1148 316.38 1146.7 313.3C1145.39 310.173 1144.74 306.813 1144.74 303.22C1144.74 299.627 1145.39 296.29 1146.7 293.21C1148 290.083 1149.82 287.377 1152.16 285.09C1154.49 282.803 1157.22 281.03 1160.35 279.77C1163.52 278.463 1166.95 277.81 1170.64 277.81C1174.56 277.81 1178.03 278.44 1181.07 279.7C1184.15 280.96 1186.83 282.687 1189.12 284.88L1181.77 292.3C1180.46 290.9 1178.87 289.803 1177.01 289.01C1175.19 288.217 1173.06 287.82 1170.64 287.82C1168.49 287.82 1166.51 288.193 1164.69 288.94C1162.91 289.64 1161.37 290.667 1160.07 292.02C1158.81 293.373 1157.8 295.007 1157.06 296.92C1156.36 298.833 1156.01 300.933 1156.01 303.22C1156.01 305.553 1156.36 307.677 1157.06 309.59C1157.8 311.503 1158.81 313.137 1160.07 314.49C1161.37 315.843 1162.91 316.893 1164.69 317.64C1166.51 318.387 1168.49 318.76 1170.64 318.76C1173.16 318.76 1175.35 318.363 1177.22 317.57C1179.08 316.777 1180.69 315.68 1182.05 314.28L1189.47 321.7C1187.09 323.893 1184.36 325.62 1181.28 326.88C1178.24 328.14 1174.72 328.77 1170.71 328.77ZM1210.1 328.77C1206.6 328.77 1203.42 328 1200.58 326.46C1197.78 324.873 1195.56 322.727 1193.93 320.02C1192.29 317.313 1191.48 314.28 1191.48 310.92C1191.48 307.56 1192.29 304.55 1193.93 301.89C1195.56 299.23 1197.78 297.13 1200.58 295.59C1203.38 294.003 1206.55 293.21 1210.1 293.21C1213.64 293.21 1216.82 293.98 1219.62 295.52C1222.42 297.06 1224.63 299.183 1226.27 301.89C1227.9 304.55 1228.72 307.56 1228.72 310.92C1228.72 314.28 1227.9 317.313 1226.27 320.02C1224.63 322.727 1222.42 324.873 1219.62 326.46C1216.82 328 1213.64 328.77 1210.1 328.77ZM1210.1 319.04C1211.64 319.04 1212.99 318.713 1214.16 318.06C1215.32 317.36 1216.21 316.403 1216.82 315.19C1217.47 313.93 1217.8 312.507 1217.8 310.92C1217.8 309.333 1217.47 307.957 1216.82 306.79C1216.16 305.577 1215.25 304.643 1214.09 303.99C1212.97 303.29 1211.64 302.94 1210.1 302.94C1208.6 302.94 1207.27 303.29 1206.11 303.99C1204.94 304.643 1204.03 305.577 1203.38 306.79C1202.72 308.003 1202.4 309.403 1202.4 310.99C1202.4 312.53 1202.72 313.93 1203.38 315.19C1204.03 316.403 1204.94 317.36 1206.11 318.06C1207.27 318.713 1208.6 319.04 1210.1 319.04ZM1256.52 328V308.61C1256.52 306.837 1255.96 305.413 1254.84 304.34C1253.77 303.22 1252.39 302.66 1250.71 302.66C1249.54 302.66 1248.52 302.917 1247.63 303.43C1246.74 303.897 1246.04 304.597 1245.53 305.53C1245.02 306.417 1244.76 307.443 1244.76 308.61L1240.63 306.58C1240.63 303.92 1241.21 301.587 1242.38 299.58C1243.55 297.573 1245.16 296.033 1247.21 294.96C1249.31 293.84 1251.67 293.28 1254.28 293.28C1256.8 293.28 1259.02 293.887 1260.93 295.1C1262.89 296.267 1264.43 297.83 1265.55 299.79C1266.67 301.75 1267.23 303.897 1267.23 306.23V328H1256.52ZM1234.05 328V293.98H1244.76V328H1234.05ZM1278.53 328V279.91H1289.24V328H1278.53ZM1270.83 303.08V293.98H1296.94V303.08H1270.83ZM1315.18 328.7C1312.06 328.7 1309.26 327.93 1306.78 326.39C1304.36 324.85 1302.42 322.75 1300.97 320.09C1299.57 317.43 1298.87 314.397 1298.87 310.99C1298.87 307.583 1299.57 304.55 1300.97 301.89C1302.42 299.23 1304.36 297.13 1306.78 295.59C1309.26 294.05 1312.06 293.28 1315.18 293.28C1317.47 293.28 1319.52 293.723 1321.34 294.61C1323.21 295.497 1324.73 296.733 1325.89 298.32C1327.06 299.86 1327.71 301.633 1327.85 303.64V318.34C1327.71 320.347 1327.06 322.143 1325.89 323.73C1324.77 325.27 1323.28 326.483 1321.41 327.37C1319.55 328.257 1317.47 328.7 1315.18 328.7ZM1317.35 319.04C1319.64 319.04 1321.48 318.293 1322.88 316.8C1324.28 315.26 1324.98 313.323 1324.98 310.99C1324.98 309.403 1324.66 308.003 1324 306.79C1323.4 305.577 1322.51 304.643 1321.34 303.99C1320.22 303.29 1318.92 302.94 1317.42 302.94C1315.93 302.94 1314.6 303.29 1313.43 303.99C1312.31 304.643 1311.4 305.577 1310.7 306.79C1310.05 308.003 1309.72 309.403 1309.72 310.99C1309.72 312.53 1310.05 313.907 1310.7 315.12C1311.36 316.333 1312.27 317.29 1313.43 317.99C1314.6 318.69 1315.91 319.04 1317.35 319.04ZM1324.56 328V318.83L1326.17 310.57L1324.56 302.31V293.98H1335.06V328H1324.56ZM1359.05 328.77C1355.55 328.77 1352.38 328 1349.53 326.46C1346.69 324.92 1344.45 322.797 1342.81 320.09C1341.18 317.383 1340.36 314.35 1340.36 310.99C1340.36 307.583 1341.18 304.55 1342.81 301.89C1344.49 299.183 1346.76 297.06 1349.6 295.52C1352.45 293.98 1355.65 293.21 1359.19 293.21C1361.85 293.21 1364.28 293.677 1366.47 294.61C1368.71 295.497 1370.7 296.85 1372.42 298.67L1365.56 305.53C1364.77 304.643 1363.84 303.99 1362.76 303.57C1361.74 303.15 1360.55 302.94 1359.19 302.94C1357.65 302.94 1356.28 303.29 1355.06 303.99C1353.9 304.643 1352.96 305.577 1352.26 306.79C1351.61 307.957 1351.28 309.333 1351.28 310.92C1351.28 312.507 1351.61 313.907 1352.26 315.12C1352.96 316.333 1353.92 317.29 1355.13 317.99C1356.35 318.69 1357.7 319.04 1359.19 319.04C1360.59 319.04 1361.83 318.807 1362.9 318.34C1364.02 317.827 1364.98 317.127 1365.77 316.24L1372.56 323.1C1370.79 324.967 1368.78 326.39 1366.54 327.37C1364.3 328.303 1361.81 328.77 1359.05 328.77ZM1381.61 328V279.91H1392.32V328H1381.61ZM1373.91 303.08V293.98H1400.02V303.08H1373.91ZM1438.93 328.77C1434.87 328.77 1431.28 327.907 1428.15 326.18C1425.07 324.453 1422.65 322.073 1420.87 319.04C1419.15 315.96 1418.28 312.46 1418.28 308.54V278.58H1429.34V309.17C1429.34 311.13 1429.76 312.833 1430.6 314.28C1431.44 315.727 1432.59 316.847 1434.03 317.64C1435.53 318.387 1437.16 318.76 1438.93 318.76C1440.8 318.76 1442.43 318.387 1443.83 317.64C1445.23 316.847 1446.33 315.75 1447.12 314.35C1447.96 312.903 1448.38 311.2 1448.38 309.24V278.58H1459.44V308.61C1459.44 312.53 1458.58 316.007 1456.85 319.04C1455.13 322.073 1452.72 324.453 1449.64 326.18C1446.56 327.907 1442.99 328.77 1438.93 328.77ZM1479.61 328.84C1477.61 328.84 1475.62 328.583 1473.66 328.07C1471.75 327.557 1469.95 326.833 1468.27 325.9C1466.64 324.92 1465.24 323.8 1464.07 322.54L1470.16 316.38C1471.28 317.593 1472.61 318.55 1474.15 319.25C1475.69 319.903 1477.37 320.23 1479.19 320.23C1480.45 320.23 1481.41 320.043 1482.06 319.67C1482.76 319.297 1483.11 318.783 1483.11 318.13C1483.11 317.29 1482.69 316.66 1481.85 316.24C1481.06 315.773 1480.03 315.377 1478.77 315.05C1477.51 314.677 1476.18 314.28 1474.78 313.86C1473.38 313.44 1472.05 312.857 1470.79 312.11C1469.53 311.363 1468.51 310.337 1467.71 309.03C1466.92 307.677 1466.52 305.973 1466.52 303.92C1466.52 301.727 1467.08 299.837 1468.2 298.25C1469.32 296.617 1470.91 295.333 1472.96 294.4C1475.02 293.467 1477.42 293 1480.17 293C1483.07 293 1485.73 293.513 1488.15 294.54C1490.63 295.52 1492.63 296.99 1494.17 298.95L1488.08 305.11C1487.01 303.85 1485.8 302.963 1484.44 302.45C1483.14 301.937 1481.85 301.68 1480.59 301.68C1479.38 301.68 1478.47 301.867 1477.86 302.24C1477.26 302.567 1476.95 303.057 1476.95 303.71C1476.95 304.41 1477.35 304.97 1478.14 305.39C1478.94 305.81 1479.96 306.183 1481.22 306.51C1482.48 306.837 1483.81 307.233 1485.21 307.7C1486.61 308.167 1487.94 308.797 1489.2 309.59C1490.46 310.383 1491.49 311.457 1492.28 312.81C1493.08 314.117 1493.47 315.843 1493.47 317.99C1493.47 321.303 1492.21 323.94 1489.69 325.9C1487.22 327.86 1483.86 328.84 1479.61 328.84Z" fill="black"/>
<rect x="970.3" y="544.3" width="683.4" height="97.4" rx="4.7" stroke="#8E8383" stroke-width="0.6"/>
<rect x="970.3" y="684.3" width="683.4" height="97.4" rx="4.7" stroke="#8E8383" stroke-width="0.6"/>
<rect x="970.3" y="824.3" width="683.4" height="357.4" rx="4.7" stroke="#8E8383" stroke-width="0.6"/>
<rect x="970" y="1232" width="684" height="98" rx="5" fill="#4A3AFF"/>
<path d="M1000.62 606V583.792H1002.74L1003.63 587.28V606H1000.62ZM1015.98 606L1002.35 587.792L1002.74 583.792L1016.4 601.968L1015.98 606ZM1015.98 606L1015.09 602.704V583.792H1018.1V606H1015.98ZM1029.29 606.32C1027.91 606.32 1026.65 605.979 1025.52 605.296C1024.39 604.592 1023.49 603.643 1022.83 602.448C1022.19 601.253 1021.87 599.909 1021.87 598.416C1021.87 596.923 1022.19 595.579 1022.83 594.384C1023.49 593.189 1024.38 592.24 1025.49 591.536C1026.62 590.832 1027.89 590.48 1029.29 590.48C1030.45 590.48 1031.47 590.725 1032.37 591.216C1033.28 591.685 1034.02 592.347 1034.57 593.2C1035.13 594.032 1035.44 595.003 1035.5 596.112V600.688C1035.44 601.776 1035.13 602.747 1034.57 603.6C1034.04 604.453 1033.32 605.125 1032.4 605.616C1031.5 606.085 1030.47 606.32 1029.29 606.32ZM1029.77 603.6C1031.2 603.6 1032.36 603.12 1033.23 602.16C1034.11 601.179 1034.54 599.931 1034.54 598.416C1034.54 597.371 1034.34 596.464 1033.93 595.696C1033.55 594.907 1033 594.299 1032.27 593.872C1031.55 593.424 1030.7 593.2 1029.74 593.2C1028.78 593.2 1027.93 593.424 1027.18 593.872C1026.46 594.32 1025.88 594.939 1025.45 595.728C1025.05 596.496 1024.85 597.381 1024.85 598.384C1024.85 599.408 1025.05 600.315 1025.45 601.104C1025.88 601.872 1026.47 602.48 1027.21 602.928C1027.96 603.376 1028.81 603.6 1029.77 603.6ZM1034.35 606V601.904L1034.89 598.192L1034.35 594.512V590.8H1037.26V606H1034.35ZM1041.46 606V590.8H1044.34V606H1041.46ZM1051.73 606V596.816C1051.73 595.685 1051.38 594.8 1050.67 594.16C1049.99 593.499 1049.13 593.168 1048.08 593.168C1047.38 593.168 1046.75 593.317 1046.19 593.616C1045.64 593.915 1045.19 594.331 1044.85 594.864C1044.51 595.397 1044.34 596.037 1044.34 596.784L1043.15 596.208C1043.15 595.056 1043.4 594.053 1043.89 593.2C1044.4 592.347 1045.09 591.685 1045.97 591.216C1046.84 590.725 1047.82 590.48 1048.91 590.48C1049.98 590.48 1050.94 590.715 1051.79 591.184C1052.67 591.653 1053.35 592.315 1053.84 593.168C1054.35 594.021 1054.61 595.035 1054.61 596.208V606H1051.73ZM1062 606V596.816C1062 595.685 1061.65 594.8 1060.94 594.16C1060.26 593.499 1059.41 593.168 1058.38 593.168C1057.68 593.168 1057.04 593.317 1056.46 593.616C1055.91 593.915 1055.46 594.331 1055.12 594.864C1054.78 595.397 1054.61 596.037 1054.61 596.784L1052.98 596.208C1053.04 595.035 1053.35 594.032 1053.9 593.2C1054.48 592.347 1055.22 591.685 1056.11 591.216C1057.01 590.725 1057.99 590.48 1059.06 590.48C1060.17 590.48 1061.16 590.715 1062.03 591.184C1062.91 591.653 1063.6 592.315 1064.11 593.168C1064.65 594.021 1064.91 595.045 1064.91 596.24V606H1062ZM1075.87 606.32C1074.36 606.32 1072.99 605.979 1071.77 605.296C1070.56 604.592 1069.6 603.643 1068.89 602.448C1068.19 601.253 1067.84 599.899 1067.84 598.384C1067.84 596.891 1068.18 595.547 1068.86 594.352C1069.57 593.157 1070.51 592.219 1071.68 591.536C1072.87 590.832 1074.21 590.48 1075.68 590.48C1077.09 590.48 1078.32 590.8 1079.39 591.44C1080.48 592.08 1081.32 592.965 1081.92 594.096C1082.54 595.227 1082.85 596.507 1082.85 597.936C1082.85 598.149 1082.84 598.384 1082.81 598.64C1082.79 598.875 1082.75 599.152 1082.69 599.472H1069.85V597.072H1081.15L1080.09 598C1080.09 596.976 1079.91 596.112 1079.55 595.408C1079.19 594.683 1078.68 594.128 1078.01 593.744C1077.35 593.339 1076.55 593.136 1075.61 593.136C1074.63 593.136 1073.77 593.349 1073.02 593.776C1072.28 594.203 1071.7 594.8 1071.29 595.568C1070.89 596.336 1070.69 597.243 1070.69 598.288C1070.69 599.355 1070.9 600.293 1071.33 601.104C1071.75 601.893 1072.36 602.512 1073.15 602.96C1073.94 603.387 1074.85 603.6 1075.87 603.6C1076.72 603.6 1077.5 603.451 1078.21 603.152C1078.93 602.853 1079.55 602.405 1080.06 601.808L1081.92 603.696C1081.19 604.549 1080.3 605.2 1079.23 605.648C1078.19 606.096 1077.07 606.32 1075.87 606.32Z" fill="#555454"/>
<path d="M1000.62 746V723.792H1003.63V746H1000.62ZM1002.67 746V743.248H1015.41V746H1002.67ZM1002.67 735.952V733.328H1014.35V735.952H1002.67ZM1002.67 726.544V723.792H1015.25V726.544H1002.67ZM1018.99 746V730.8H1021.87V746H1018.99ZM1029.26 746V736.816C1029.26 735.685 1028.91 734.8 1028.2 734.16C1027.52 733.499 1026.66 733.168 1025.61 733.168C1024.91 733.168 1024.28 733.317 1023.72 733.616C1023.17 733.915 1022.72 734.331 1022.38 734.864C1022.04 735.397 1021.87 736.037 1021.87 736.784L1020.68 736.208C1020.68 735.056 1020.93 734.053 1021.42 733.2C1021.93 732.347 1022.62 731.685 1023.5 731.216C1024.37 730.725 1025.36 730.48 1026.44 730.48C1027.51 730.48 1028.47 730.715 1029.32 731.184C1030.2 731.653 1030.88 732.315 1031.37 733.168C1031.88 734.021 1032.14 735.035 1032.14 736.208V746H1029.26ZM1039.53 746V736.816C1039.53 735.685 1039.18 734.8 1038.48 734.16C1037.79 733.499 1036.94 733.168 1035.92 733.168C1035.21 733.168 1034.57 733.317 1034 733.616C1033.44 733.915 1032.99 734.331 1032.65 734.864C1032.31 735.397 1032.14 736.037 1032.14 736.784L1030.51 736.208C1030.57 735.035 1030.88 734.032 1031.44 733.2C1032.01 732.347 1032.75 731.685 1033.64 731.216C1034.54 730.725 1035.52 730.48 1036.59 730.48C1037.7 730.48 1038.69 730.715 1039.56 731.184C1040.44 731.653 1041.13 732.315 1041.64 733.168C1042.18 734.021 1042.44 735.045 1042.44 736.24V746H1039.53ZM1052.83 746.32C1051.44 746.32 1050.18 745.979 1049.05 745.296C1047.92 744.592 1047.02 743.643 1046.36 742.448C1045.72 741.253 1045.4 739.909 1045.4 738.416C1045.4 736.923 1045.72 735.579 1046.36 734.384C1047.02 733.189 1047.91 732.24 1049.02 731.536C1050.15 730.832 1051.42 730.48 1052.83 730.48C1053.98 730.48 1055 730.725 1055.9 731.216C1056.82 731.685 1057.55 732.347 1058.11 733.2C1058.66 734.032 1058.97 735.003 1059.03 736.112V740.688C1058.97 741.776 1058.66 742.747 1058.11 743.6C1057.57 744.453 1056.85 745.125 1055.93 745.616C1055.03 746.085 1054 746.32 1052.83 746.32ZM1053.31 743.6C1054.74 743.6 1055.89 743.12 1056.76 742.16C1057.64 741.179 1058.07 739.931 1058.07 738.416C1058.07 737.371 1057.87 736.464 1057.47 735.696C1057.08 734.907 1056.53 734.299 1055.8 733.872C1055.08 733.424 1054.23 733.2 1053.27 733.2C1052.31 733.2 1051.46 733.424 1050.71 733.872C1049.99 734.32 1049.41 734.939 1048.99 735.728C1048.58 736.496 1048.38 737.381 1048.38 738.384C1048.38 739.408 1048.58 740.315 1048.99 741.104C1049.41 741.872 1050 742.48 1050.75 742.928C1051.49 743.376 1052.35 743.6 1053.31 743.6ZM1057.88 746V741.904L1058.43 738.192L1057.88 734.512V730.8H1060.79V746H1057.88ZM1065.02 746V730.8H1067.9V746H1065.02ZM1066.46 727.76C1065.93 727.76 1065.49 727.589 1065.15 727.248C1064.81 726.885 1064.64 726.437 1064.64 725.904C1064.64 725.392 1064.81 724.965 1065.15 724.624C1065.49 724.261 1065.93 724.08 1066.46 724.08C1066.99 724.08 1067.43 724.261 1067.77 724.624C1068.11 724.965 1068.28 725.392 1068.28 725.904C1068.28 726.437 1068.11 726.885 1067.77 727.248C1067.43 727.589 1066.99 727.76 1066.46 727.76ZM1072.14 746V723.152H1075.02V746H1072.14Z" fill="#555454"/>
<path d="M1000.62 886V863.792H1002.74L1012.14 879.248H1010.7L1020.11 863.792H1022.22V886H1019.22V869.072L1019.92 869.264L1012.5 881.456H1010.38L1002.96 869.264L1003.63 869.072V886H1000.62ZM1034 886.32C1032.48 886.32 1031.12 885.979 1029.9 885.296C1028.68 884.592 1027.72 883.643 1027.02 882.448C1026.32 881.253 1025.96 879.899 1025.96 878.384C1025.96 876.891 1026.31 875.547 1026.99 874.352C1027.69 873.157 1028.63 872.219 1029.8 871.536C1031 870.832 1032.33 870.48 1033.8 870.48C1035.21 870.48 1036.45 870.8 1037.52 871.44C1038.6 872.08 1039.45 872.965 1040.04 874.096C1040.66 875.227 1040.97 876.507 1040.97 877.936C1040.97 878.149 1040.96 878.384 1040.94 878.64C1040.92 878.875 1040.88 879.152 1040.81 879.472H1027.98V877.072H1039.28L1038.22 878C1038.22 876.976 1038.04 876.112 1037.68 875.408C1037.31 874.683 1036.8 874.128 1036.14 873.744C1035.48 873.339 1034.68 873.136 1033.74 873.136C1032.76 873.136 1031.89 873.349 1031.15 873.776C1030.4 874.203 1029.83 874.8 1029.42 875.568C1029.01 876.336 1028.81 877.243 1028.81 878.288C1028.81 879.355 1029.03 880.293 1029.45 881.104C1029.88 881.893 1030.49 882.512 1031.28 882.96C1032.07 883.387 1032.97 883.6 1034 883.6C1034.85 883.6 1035.63 883.451 1036.33 883.152C1037.06 882.853 1037.68 882.405 1038.19 881.808L1040.04 883.696C1039.32 884.549 1038.42 885.2 1037.36 885.648C1036.31 886.096 1035.19 886.32 1034 886.32ZM1048.94 886.32C1048.09 886.32 1047.28 886.213 1046.51 886C1045.77 885.765 1045.07 885.445 1044.43 885.04C1043.79 884.613 1043.24 884.112 1042.77 883.536L1044.62 881.68C1045.18 882.363 1045.82 882.875 1046.54 883.216C1047.27 883.536 1048.08 883.696 1048.98 883.696C1049.87 883.696 1050.57 883.547 1051.06 883.248C1051.55 882.928 1051.79 882.491 1051.79 881.936C1051.79 881.381 1051.59 880.955 1051.18 880.656C1050.8 880.336 1050.3 880.08 1049.68 879.888C1049.06 879.675 1048.4 879.472 1047.7 879.28C1047.01 879.067 1046.36 878.8 1045.74 878.48C1045.13 878.16 1044.61 877.723 1044.21 877.168C1043.82 876.613 1043.63 875.877 1043.63 874.96C1043.63 874.043 1043.86 873.253 1044.3 872.592C1044.75 871.909 1045.37 871.387 1046.16 871.024C1046.97 870.661 1047.94 870.48 1049.07 870.48C1050.27 870.48 1051.32 870.693 1052.24 871.12C1053.18 871.525 1053.95 872.144 1054.54 872.976L1052.69 874.832C1052.26 874.277 1051.73 873.851 1051.09 873.552C1050.47 873.253 1049.77 873.104 1048.98 873.104C1048.14 873.104 1047.5 873.253 1047.06 873.552C1046.63 873.829 1046.42 874.224 1046.42 874.736C1046.42 875.248 1046.61 875.643 1046.99 875.92C1047.38 876.197 1047.88 876.432 1048.5 876.624C1049.14 876.816 1049.8 877.019 1050.48 877.232C1051.16 877.424 1051.81 877.691 1052.43 878.032C1053.05 878.373 1053.55 878.832 1053.94 879.408C1054.34 879.984 1054.54 880.741 1054.54 881.68C1054.54 883.109 1054.03 884.24 1053.01 885.072C1052.01 885.904 1050.65 886.32 1048.94 886.32ZM1062.6 886.32C1061.75 886.32 1060.94 886.213 1060.17 886C1059.42 885.765 1058.73 885.445 1058.09 885.04C1057.45 884.613 1056.89 884.112 1056.42 883.536L1058.28 881.68C1058.83 882.363 1059.47 882.875 1060.2 883.216C1060.93 883.536 1061.74 883.696 1062.63 883.696C1063.53 883.696 1064.22 883.547 1064.71 883.248C1065.2 882.928 1065.45 882.491 1065.45 881.936C1065.45 881.381 1065.25 880.955 1064.84 880.656C1064.46 880.336 1063.95 880.08 1063.34 879.888C1062.72 879.675 1062.06 879.472 1061.35 879.28C1060.67 879.067 1060.02 878.8 1059.4 878.48C1058.78 878.16 1058.27 877.723 1057.86 877.168C1057.48 876.613 1057.29 875.877 1057.29 874.96C1057.29 874.043 1057.51 873.253 1057.96 872.592C1058.41 871.909 1059.03 871.387 1059.82 871.024C1060.63 870.661 1061.6 870.48 1062.73 870.48C1063.92 870.48 1064.98 870.693 1065.9 871.12C1066.83 871.525 1067.6 872.144 1068.2 872.976L1066.34 874.832C1065.92 874.277 1065.38 873.851 1064.74 873.552C1064.13 873.253 1063.42 873.104 1062.63 873.104C1061.8 873.104 1061.16 873.253 1060.71 873.552C1060.29 873.829 1060.07 874.224 1060.07 874.736C1060.07 875.248 1060.26 875.643 1060.65 875.92C1061.03 876.197 1061.53 876.432 1062.15 876.624C1062.79 876.816 1063.45 877.019 1064.14 877.232C1064.82 877.424 1065.47 877.691 1066.09 878.032C1066.71 878.373 1067.21 878.832 1067.59 879.408C1068 879.984 1068.2 880.741 1068.2 881.68C1068.2 883.109 1067.69 884.24 1066.66 885.072C1065.66 885.904 1064.31 886.32 1062.6 886.32ZM1077.89 886.32C1076.5 886.32 1075.24 885.979 1074.11 885.296C1072.98 884.592 1072.09 883.643 1071.42 882.448C1070.78 881.253 1070.46 879.909 1070.46 878.416C1070.46 876.923 1070.78 875.579 1071.42 874.384C1072.09 873.189 1072.97 872.24 1074.08 871.536C1075.21 870.832 1076.48 870.48 1077.89 870.48C1079.04 870.48 1080.06 870.725 1080.96 871.216C1081.88 871.685 1082.61 872.347 1083.17 873.2C1083.72 874.032 1084.03 875.003 1084.1 876.112V880.688C1084.03 881.776 1083.72 882.747 1083.17 883.6C1082.64 884.453 1081.91 885.125 1080.99 885.616C1080.1 886.085 1079.06 886.32 1077.89 886.32ZM1078.37 883.6C1079.8 883.6 1080.95 883.12 1081.82 882.16C1082.7 881.179 1083.14 879.931 1083.14 878.416C1083.14 877.371 1082.93 876.464 1082.53 875.696C1082.14 874.907 1081.59 874.299 1080.86 873.872C1080.14 873.424 1079.3 873.2 1078.34 873.2C1077.38 873.2 1076.52 873.424 1075.78 873.872C1075.05 874.32 1074.48 874.939 1074.05 875.728C1073.64 876.496 1073.44 877.381 1073.44 878.384C1073.44 879.408 1073.64 880.315 1074.05 881.104C1074.48 881.872 1075.06 882.48 1075.81 882.928C1076.56 883.376 1077.41 883.6 1078.37 883.6ZM1082.94 886V881.904L1083.49 878.192L1082.94 874.512V870.8H1085.86V886H1082.94ZM1096.35 892.688C1094.8 892.688 1093.41 892.4 1092.19 891.824C1091 891.248 1090.04 890.437 1089.31 889.392L1091.17 887.504C1091.79 888.293 1092.52 888.891 1093.38 889.296C1094.23 889.723 1095.24 889.936 1096.42 889.936C1097.97 889.936 1099.2 889.52 1100.1 888.688C1101.01 887.877 1101.47 886.779 1101.47 885.392V881.616L1101.99 878.192L1101.47 874.8V870.8H1104.35V885.392C1104.35 886.843 1104.01 888.112 1103.33 889.2C1102.67 890.288 1101.73 891.141 1100.51 891.76C1099.32 892.379 1097.93 892.688 1096.35 892.688ZM1096.35 885.744C1094.97 885.744 1093.72 885.413 1092.61 884.752C1091.52 884.091 1090.66 883.184 1090.02 882.032C1089.38 880.859 1089.06 879.547 1089.06 878.096C1089.06 876.645 1089.38 875.355 1090.02 874.224C1090.66 873.072 1091.52 872.165 1092.61 871.504C1093.72 870.821 1094.97 870.48 1096.35 870.48C1097.55 870.48 1098.6 870.715 1099.52 871.184C1100.44 871.653 1101.16 872.315 1101.7 873.168C1102.25 874 1102.55 874.981 1102.59 876.112V880.144C1102.53 881.253 1102.22 882.235 1101.67 883.088C1101.13 883.92 1100.41 884.571 1099.49 885.04C1098.57 885.509 1097.53 885.744 1096.35 885.744ZM1096.93 883.024C1097.87 883.024 1098.69 882.821 1099.39 882.416C1100.12 882.011 1100.67 881.445 1101.06 880.72C1101.44 879.973 1101.63 879.109 1101.63 878.128C1101.63 877.147 1101.43 876.293 1101.03 875.568C1100.64 874.821 1100.1 874.245 1099.39 873.84C1098.69 873.413 1097.86 873.2 1096.9 873.2C1095.94 873.2 1095.09 873.413 1094.37 873.84C1093.64 874.245 1093.07 874.821 1092.64 875.568C1092.24 876.293 1092.03 877.136 1092.03 878.096C1092.03 879.056 1092.24 879.909 1092.64 880.656C1093.07 881.403 1093.64 881.989 1094.37 882.416C1095.12 882.821 1095.97 883.024 1096.93 883.024ZM1115.62 886.32C1114.11 886.32 1112.74 885.979 1111.52 885.296C1110.31 884.592 1109.35 883.643 1108.64 882.448C1107.94 881.253 1107.59 879.899 1107.59 878.384C1107.59 876.891 1107.93 875.547 1108.61 874.352C1109.32 873.157 1110.26 872.219 1111.43 871.536C1112.62 870.832 1113.96 870.48 1115.43 870.48C1116.84 870.48 1118.07 870.8 1119.14 871.44C1120.23 872.08 1121.07 872.965 1121.67 874.096C1122.29 875.227 1122.6 876.507 1122.6 877.936C1122.6 878.149 1122.59 878.384 1122.56 878.64C1122.54 878.875 1122.5 879.152 1122.44 879.472H1109.6V877.072H1120.9L1119.84 878C1119.84 876.976 1119.66 876.112 1119.3 875.408C1118.94 874.683 1118.43 874.128 1117.76 873.744C1117.1 873.339 1116.3 873.136 1115.36 873.136C1114.38 873.136 1113.52 873.349 1112.77 873.776C1112.03 874.203 1111.45 874.8 1111.04 875.568C1110.64 876.336 1110.44 877.243 1110.44 878.288C1110.44 879.355 1110.65 880.293 1111.08 881.104C1111.5 881.893 1112.11 882.512 1112.9 882.96C1113.69 883.387 1114.6 883.6 1115.62 883.6C1116.47 883.6 1117.25 883.451 1117.96 883.152C1118.68 882.853 1119.3 882.405 1119.81 881.808L1121.67 883.696C1120.94 884.549 1120.05 885.2 1118.98 885.648C1117.94 886.096 1116.82 886.32 1115.62 886.32Z" fill="#555454"/>
<path d="M1203.76 1292.36C1201.76 1292.36 1200.07 1292 1198.68 1291.28C1197.29 1290.56 1196.04 1289.5 1194.94 1288.11L1197.74 1285.3C1198.44 1286.31 1199.27 1287.1 1200.23 1287.68C1201.19 1288.23 1202.41 1288.51 1203.9 1288.51C1205.29 1288.51 1206.4 1288.22 1207.21 1287.64C1208.05 1287.07 1208.47 1286.28 1208.47 1285.27C1208.47 1284.43 1208.26 1283.74 1207.82 1283.22C1207.39 1282.69 1206.82 1282.26 1206.1 1281.92C1205.4 1281.56 1204.62 1281.25 1203.76 1280.98C1202.92 1280.7 1202.06 1280.38 1201.2 1280.05C1200.36 1279.69 1199.58 1279.24 1198.86 1278.72C1198.16 1278.19 1197.6 1277.5 1197.17 1276.66C1196.74 1275.82 1196.52 1274.76 1196.52 1273.46C1196.52 1271.97 1196.88 1270.71 1197.6 1269.68C1198.34 1268.62 1199.34 1267.82 1200.59 1267.27C1201.84 1266.72 1203.23 1266.44 1204.76 1266.44C1206.42 1266.44 1207.9 1266.76 1209.19 1267.41C1210.51 1268.06 1211.58 1268.89 1212.4 1269.9L1209.59 1272.7C1208.87 1271.89 1208.11 1271.29 1207.32 1270.9C1206.55 1270.5 1205.66 1270.29 1204.66 1270.29C1203.41 1270.29 1202.42 1270.54 1201.7 1271.05C1201.01 1271.55 1200.66 1272.26 1200.66 1273.17C1200.66 1273.94 1200.88 1274.56 1201.31 1275.04C1201.74 1275.5 1202.3 1275.9 1203 1276.23C1203.72 1276.54 1204.5 1276.84 1205.34 1277.13C1206.2 1277.42 1207.06 1277.74 1207.9 1278.1C1208.76 1278.46 1209.54 1278.93 1210.24 1279.51C1210.96 1280.06 1211.53 1280.78 1211.96 1281.67C1212.4 1282.56 1212.61 1283.67 1212.61 1285.02C1212.61 1287.27 1211.81 1289.06 1210.2 1290.38C1208.62 1291.7 1206.47 1292.36 1203.76 1292.36ZM1224.02 1292.36C1222.29 1292.36 1220.73 1291.98 1219.34 1291.21C1217.97 1290.42 1216.88 1289.34 1216.06 1287.97C1215.27 1286.6 1214.87 1285.06 1214.87 1283.36C1214.87 1281.66 1215.27 1280.13 1216.06 1278.79C1216.85 1277.42 1217.92 1276.34 1219.26 1275.55C1220.63 1274.76 1222.14 1274.36 1223.8 1274.36C1225.41 1274.36 1226.82 1274.73 1228.05 1275.48C1229.3 1276.22 1230.27 1277.24 1230.96 1278.54C1231.68 1279.83 1232.04 1281.31 1232.04 1282.96C1232.04 1283.25 1232.02 1283.55 1231.97 1283.86C1231.95 1284.15 1231.9 1284.48 1231.83 1284.84H1217.64V1281.6H1229.78L1228.3 1282.89C1228.25 1281.84 1228.05 1280.95 1227.69 1280.23C1227.33 1279.51 1226.81 1278.96 1226.14 1278.57C1225.49 1278.19 1224.69 1278 1223.73 1278C1222.72 1278 1221.84 1278.21 1221.1 1278.64C1220.36 1279.08 1219.78 1279.69 1219.37 1280.48C1218.96 1281.25 1218.76 1282.17 1218.76 1283.25C1218.76 1284.33 1218.98 1285.28 1219.41 1286.1C1219.84 1286.91 1220.45 1287.55 1221.24 1288C1222.04 1288.44 1222.95 1288.65 1223.98 1288.65C1224.87 1288.65 1225.68 1288.5 1226.43 1288.18C1227.2 1287.87 1227.84 1287.42 1228.37 1286.82L1230.89 1289.37C1230.05 1290.36 1229.03 1291.1 1227.83 1291.6C1226.63 1292.11 1225.36 1292.36 1224.02 1292.36ZM1247.06 1292V1282.03C1247.06 1280.88 1246.69 1279.93 1245.95 1279.18C1245.23 1278.44 1244.29 1278.07 1243.14 1278.07C1242.37 1278.07 1241.69 1278.24 1241.09 1278.57C1240.49 1278.91 1240.02 1279.38 1239.68 1279.98C1239.35 1280.58 1239.18 1281.26 1239.18 1282.03L1237.63 1281.16C1237.63 1279.84 1237.92 1278.68 1238.5 1277.67C1239.07 1276.64 1239.86 1275.84 1240.87 1275.26C1241.9 1274.66 1243.06 1274.36 1244.33 1274.36C1245.62 1274.36 1246.78 1274.7 1247.78 1275.37C1248.79 1276.02 1249.58 1276.87 1250.16 1277.92C1250.74 1278.96 1251.02 1280.04 1251.02 1281.16V1292H1247.06ZM1235.22 1292V1274.72H1239.18V1292H1235.22ZM1262.28 1292.36C1260.72 1292.36 1259.31 1291.96 1258.04 1291.17C1256.79 1290.38 1255.79 1289.31 1255.05 1287.97C1254.33 1286.6 1253.97 1285.08 1253.97 1283.4C1253.97 1281.69 1254.33 1280.17 1255.05 1278.82C1255.79 1277.46 1256.79 1276.38 1258.04 1275.58C1259.31 1274.77 1260.72 1274.36 1262.28 1274.36C1263.6 1274.36 1264.77 1274.65 1265.78 1275.22C1266.81 1275.78 1267.62 1276.54 1268.22 1277.53C1268.82 1278.51 1269.12 1279.63 1269.12 1280.88V1285.84C1269.12 1287.09 1268.82 1288.21 1268.22 1289.19C1267.65 1290.18 1266.84 1290.96 1265.81 1291.53C1264.78 1292.08 1263.6 1292.36 1262.28 1292.36ZM1262.93 1288.62C1263.92 1288.62 1264.77 1288.4 1265.49 1287.97C1266.23 1287.51 1266.81 1286.89 1267.22 1286.1C1267.62 1285.3 1267.83 1284.39 1267.83 1283.36C1267.83 1282.33 1267.62 1281.42 1267.22 1280.62C1266.81 1279.83 1266.23 1279.22 1265.49 1278.79C1264.77 1278.33 1263.92 1278.1 1262.93 1278.1C1261.97 1278.1 1261.12 1278.33 1260.38 1278.79C1259.66 1279.22 1259.08 1279.83 1258.65 1280.62C1258.24 1281.42 1258.04 1282.33 1258.04 1283.36C1258.04 1284.39 1258.24 1285.3 1258.65 1286.1C1259.08 1286.89 1259.66 1287.51 1260.38 1287.97C1261.12 1288.4 1261.97 1288.62 1262.93 1288.62ZM1271.54 1292H1267.58V1287.36L1268.26 1283.14L1267.58 1278.97V1266.08H1271.54V1292ZM1283.68 1292V1266.8H1286.56L1297.03 1284.04H1295.16L1305.64 1266.8H1308.52V1292H1304.38V1274.07L1305.31 1274.32L1297.54 1287.1H1294.66L1286.88 1274.32L1287.82 1274.07V1292H1283.68ZM1321.47 1292.36C1319.74 1292.36 1318.18 1291.98 1316.79 1291.21C1315.42 1290.42 1314.33 1289.34 1313.51 1287.97C1312.72 1286.6 1312.33 1285.06 1312.33 1283.36C1312.33 1281.66 1312.72 1280.13 1313.51 1278.79C1314.31 1277.42 1315.37 1276.34 1316.72 1275.55C1318.09 1274.76 1319.6 1274.36 1321.25 1274.36C1322.86 1274.36 1324.28 1274.73 1325.5 1275.48C1326.75 1276.22 1327.72 1277.24 1328.42 1278.54C1329.14 1279.83 1329.5 1281.31 1329.5 1282.96C1329.5 1283.25 1329.47 1283.55 1329.43 1283.86C1329.4 1284.15 1329.35 1284.48 1329.28 1284.84H1315.1V1281.6H1327.23L1325.75 1282.89C1325.71 1281.84 1325.5 1280.95 1325.14 1280.23C1324.78 1279.51 1324.27 1278.96 1323.59 1278.57C1322.95 1278.19 1322.14 1278 1321.18 1278C1320.17 1278 1319.3 1278.21 1318.55 1278.64C1317.81 1279.08 1317.23 1279.69 1316.83 1280.48C1316.42 1281.25 1316.21 1282.17 1316.21 1283.25C1316.21 1284.33 1316.43 1285.28 1316.86 1286.1C1317.29 1286.91 1317.91 1287.55 1318.7 1288C1319.49 1288.44 1320.4 1288.65 1321.43 1288.65C1322.32 1288.65 1323.14 1288.5 1323.88 1288.18C1324.65 1287.87 1325.3 1287.42 1325.83 1286.82L1328.35 1289.37C1327.51 1290.36 1326.49 1291.1 1325.29 1291.6C1324.09 1292.11 1322.81 1292.36 1321.47 1292.36ZM1338.32 1292.36C1337.36 1292.36 1336.44 1292.24 1335.55 1292C1334.66 1291.74 1333.85 1291.38 1333.1 1290.92C1332.36 1290.44 1331.71 1289.86 1331.16 1289.19L1333.68 1286.67C1334.28 1287.37 1334.96 1287.9 1335.73 1288.26C1336.52 1288.59 1337.41 1288.76 1338.4 1288.76C1339.28 1288.76 1339.96 1288.63 1340.41 1288.36C1340.87 1288.1 1341.1 1287.72 1341.1 1287.21C1341.1 1286.68 1340.88 1286.28 1340.45 1285.99C1340.02 1285.7 1339.45 1285.46 1338.76 1285.27C1338.08 1285.05 1337.36 1284.84 1336.6 1284.62C1335.85 1284.4 1335.13 1284.12 1334.44 1283.76C1333.76 1283.37 1333.21 1282.86 1332.78 1282.21C1332.35 1281.56 1332.13 1280.72 1332.13 1279.69C1332.13 1278.58 1332.38 1277.64 1332.89 1276.84C1333.42 1276.05 1334.15 1275.44 1335.08 1275.01C1336.04 1274.58 1337.18 1274.36 1338.5 1274.36C1339.9 1274.36 1341.12 1274.61 1342.18 1275.12C1343.26 1275.6 1344.16 1276.33 1344.88 1277.31L1342.36 1279.83C1341.85 1279.21 1341.28 1278.74 1340.63 1278.43C1339.98 1278.12 1339.24 1277.96 1338.4 1277.96C1337.6 1277.96 1336.99 1278.08 1336.56 1278.32C1336.13 1278.56 1335.91 1278.91 1335.91 1279.36C1335.91 1279.84 1336.13 1280.22 1336.56 1280.48C1336.99 1280.74 1337.54 1280.97 1338.22 1281.16C1338.91 1281.36 1339.63 1281.57 1340.38 1281.81C1341.14 1282.03 1341.86 1282.34 1342.54 1282.75C1343.23 1283.13 1343.8 1283.66 1344.23 1284.33C1344.66 1284.98 1344.88 1285.83 1344.88 1286.89C1344.88 1288.57 1344.29 1289.9 1343.11 1290.88C1341.94 1291.87 1340.34 1292.36 1338.32 1292.36ZM1353.79 1292.36C1352.83 1292.36 1351.91 1292.24 1351.02 1292C1350.13 1291.74 1349.32 1291.38 1348.57 1290.92C1347.83 1290.44 1347.18 1289.86 1346.63 1289.19L1349.15 1286.67C1349.75 1287.37 1350.43 1287.9 1351.2 1288.26C1351.99 1288.59 1352.88 1288.76 1353.87 1288.76C1354.75 1288.76 1355.43 1288.63 1355.88 1288.36C1356.34 1288.1 1356.57 1287.72 1356.57 1287.21C1356.57 1286.68 1356.35 1286.28 1355.92 1285.99C1355.49 1285.7 1354.92 1285.46 1354.23 1285.27C1353.55 1285.05 1352.83 1284.84 1352.07 1284.62C1351.32 1284.4 1350.6 1284.12 1349.91 1283.76C1349.23 1283.37 1348.68 1282.86 1348.25 1282.21C1347.82 1281.56 1347.6 1280.72 1347.6 1279.69C1347.6 1278.58 1347.85 1277.64 1348.36 1276.84C1348.89 1276.05 1349.62 1275.44 1350.55 1275.01C1351.51 1274.58 1352.65 1274.36 1353.97 1274.36C1355.37 1274.36 1356.59 1274.61 1357.65 1275.12C1358.73 1275.6 1359.63 1276.33 1360.35 1277.31L1357.83 1279.83C1357.32 1279.21 1356.75 1278.74 1356.1 1278.43C1355.45 1278.12 1354.71 1277.96 1353.87 1277.96C1353.07 1277.96 1352.46 1278.08 1352.03 1278.32C1351.6 1278.56 1351.38 1278.91 1351.38 1279.36C1351.38 1279.84 1351.6 1280.22 1352.03 1280.48C1352.46 1280.74 1353.01 1280.97 1353.69 1281.16C1354.38 1281.36 1355.1 1281.57 1355.85 1281.81C1356.61 1282.03 1357.33 1282.34 1358.01 1282.75C1358.7 1283.13 1359.27 1283.66 1359.7 1284.33C1360.13 1284.98 1360.35 1285.83 1360.35 1286.89C1360.35 1288.57 1359.76 1289.9 1358.58 1290.88C1357.41 1291.87 1355.81 1292.36 1353.79 1292.36ZM1370.85 1292.36C1369.29 1292.36 1367.87 1291.96 1366.6 1291.17C1365.35 1290.38 1364.35 1289.31 1363.61 1287.97C1362.89 1286.6 1362.53 1285.08 1362.53 1283.4C1362.53 1281.69 1362.89 1280.17 1363.61 1278.82C1364.35 1277.46 1365.35 1276.38 1366.6 1275.58C1367.87 1274.77 1369.29 1274.36 1370.85 1274.36C1372.17 1274.36 1373.33 1274.65 1374.34 1275.22C1375.37 1275.78 1376.19 1276.54 1376.79 1277.53C1377.39 1278.51 1377.69 1279.63 1377.69 1280.88V1285.84C1377.69 1287.09 1377.39 1288.21 1376.79 1289.19C1376.21 1290.18 1375.41 1290.96 1374.37 1291.53C1373.34 1292.08 1372.17 1292.36 1370.85 1292.36ZM1371.49 1288.62C1372.96 1288.62 1374.13 1288.12 1375.02 1287.14C1375.93 1286.16 1376.39 1284.9 1376.39 1283.36C1376.39 1282.33 1376.19 1281.42 1375.78 1280.62C1375.37 1279.83 1374.79 1279.22 1374.05 1278.79C1373.33 1278.33 1372.48 1278.1 1371.49 1278.1C1370.53 1278.1 1369.68 1278.33 1368.94 1278.79C1368.22 1279.22 1367.64 1279.83 1367.21 1280.62C1366.8 1281.42 1366.6 1282.33 1366.6 1283.36C1366.6 1284.39 1366.8 1285.3 1367.21 1286.1C1367.64 1286.89 1368.22 1287.51 1368.94 1287.97C1369.68 1288.4 1370.53 1288.62 1371.49 1288.62ZM1376.14 1292V1287.36L1376.82 1283.14L1376.14 1278.97V1274.72H1380.1V1292H1376.14ZM1391.69 1299.56C1389.87 1299.56 1388.27 1299.22 1386.9 1298.55C1385.54 1297.9 1384.43 1296.98 1383.59 1295.78L1386.18 1293.19C1386.88 1294.05 1387.67 1294.7 1388.56 1295.13C1389.45 1295.56 1390.52 1295.78 1391.76 1295.78C1393.32 1295.78 1394.56 1295.37 1395.47 1294.56C1396.38 1293.76 1396.84 1292.67 1396.84 1291.28V1287.03L1397.52 1283.22L1396.84 1279.36V1274.72H1400.8V1291.28C1400.8 1292.94 1400.42 1294.38 1399.65 1295.6C1398.88 1296.85 1397.81 1297.82 1396.44 1298.52C1395.08 1299.21 1393.49 1299.56 1391.69 1299.56ZM1391.51 1291.64C1389.98 1291.64 1388.58 1291.27 1387.34 1290.52C1386.11 1289.76 1385.14 1288.71 1384.42 1287.39C1383.72 1286.07 1383.38 1284.6 1383.38 1282.96C1383.38 1281.33 1383.72 1279.87 1384.42 1278.57C1385.14 1277.28 1386.11 1276.26 1387.34 1275.51C1388.58 1274.74 1389.98 1274.36 1391.51 1274.36C1392.88 1274.36 1394.08 1274.64 1395.11 1275.19C1396.14 1275.74 1396.95 1276.51 1397.52 1277.49C1398.1 1278.45 1398.39 1279.58 1398.39 1280.88V1285.12C1398.39 1286.4 1398.09 1287.52 1397.49 1288.51C1396.91 1289.49 1396.11 1290.26 1395.08 1290.81C1394.04 1291.36 1392.86 1291.64 1391.51 1291.64ZM1392.3 1287.9C1393.26 1287.9 1394.1 1287.69 1394.82 1287.28C1395.54 1286.88 1396.1 1286.31 1396.48 1285.59C1396.89 1284.85 1397.09 1283.98 1397.09 1283C1397.09 1282.02 1396.89 1281.16 1396.48 1280.44C1396.1 1279.7 1395.54 1279.12 1394.82 1278.72C1394.1 1278.31 1393.26 1278.1 1392.3 1278.1C1391.34 1278.1 1390.49 1278.31 1389.75 1278.72C1389.03 1279.12 1388.46 1279.7 1388.06 1280.44C1387.65 1281.16 1387.44 1282.02 1387.44 1283C1387.44 1283.96 1387.65 1284.81 1388.06 1285.56C1388.46 1286.3 1389.03 1286.88 1389.75 1287.28C1390.49 1287.69 1391.34 1287.9 1392.3 1287.9ZM1413.23 1292.36C1411.5 1292.36 1409.94 1291.98 1408.55 1291.21C1407.18 1290.42 1406.09 1289.34 1405.27 1287.97C1404.48 1286.6 1404.08 1285.06 1404.08 1283.36C1404.08 1281.66 1404.48 1280.13 1405.27 1278.79C1406.06 1277.42 1407.13 1276.34 1408.48 1275.55C1409.84 1274.76 1411.36 1274.36 1413.01 1274.36C1414.62 1274.36 1416.04 1274.73 1417.26 1275.48C1418.51 1276.22 1419.48 1277.24 1420.18 1278.54C1420.9 1279.83 1421.26 1281.31 1421.26 1282.96C1421.26 1283.25 1421.23 1283.55 1421.18 1283.86C1421.16 1284.15 1421.11 1284.48 1421.04 1284.84H1406.86V1281.6H1418.99L1417.51 1282.89C1417.46 1281.84 1417.26 1280.95 1416.9 1280.23C1416.54 1279.51 1416.02 1278.96 1415.35 1278.57C1414.7 1278.19 1413.9 1278 1412.94 1278C1411.93 1278 1411.06 1278.21 1410.31 1278.64C1409.57 1279.08 1408.99 1279.69 1408.58 1280.48C1408.18 1281.25 1407.97 1282.17 1407.97 1283.25C1407.97 1284.33 1408.19 1285.28 1408.62 1286.1C1409.05 1286.91 1409.66 1287.55 1410.46 1288C1411.25 1288.44 1412.16 1288.65 1413.19 1288.65C1414.08 1288.65 1414.9 1288.5 1415.64 1288.18C1416.41 1287.87 1417.06 1287.42 1417.58 1286.82L1420.1 1289.37C1419.26 1290.36 1418.24 1291.1 1417.04 1291.6C1415.84 1292.11 1414.57 1292.36 1413.23 1292.36Z" fill="white"/>
<path d="M913.762 438.4C911.575 438.4 909.708 438 908.162 437.2C906.615 436.4 905.242 435.24 904.042 433.72L906.602 431.16C907.482 432.387 908.495 433.32 909.642 433.96C910.788 434.573 912.202 434.88 913.882 434.88C915.535 434.88 916.855 434.52 917.842 433.8C918.855 433.08 919.362 432.093 919.362 430.84C919.362 429.8 919.122 428.96 918.642 428.32C918.162 427.68 917.508 427.16 916.682 426.76C915.882 426.333 915.002 425.96 914.042 425.64C913.082 425.293 912.122 424.933 911.162 424.56C910.202 424.16 909.322 423.68 908.522 423.12C907.722 422.533 907.068 421.773 906.562 420.84C906.082 419.907 905.842 418.733 905.842 417.32C905.842 415.747 906.215 414.413 906.962 413.32C907.735 412.2 908.775 411.347 910.082 410.76C911.415 410.147 912.908 409.84 914.562 409.84C916.375 409.84 918.002 410.2 919.442 410.92C920.882 411.613 922.055 412.533 922.962 413.68L920.402 416.24C919.575 415.28 918.682 414.56 917.722 414.08C916.788 413.6 915.708 413.36 914.482 413.36C912.988 413.36 911.802 413.693 910.922 414.36C910.042 415 909.602 415.907 909.602 417.08C909.602 418.013 909.842 418.773 910.322 419.36C910.828 419.92 911.482 420.4 912.282 420.8C913.082 421.2 913.962 421.573 914.922 421.92C915.908 422.24 916.882 422.6 917.842 423C918.802 423.4 919.682 423.907 920.482 424.52C921.282 425.133 921.922 425.933 922.402 426.92C922.908 427.88 923.162 429.093 923.162 430.56C923.162 433.013 922.308 434.933 920.602 436.32C918.922 437.707 916.642 438.4 913.762 438.4ZM935.996 438.4C934.129 438.4 932.449 437.96 930.956 437.08C929.462 436.2 928.276 435.013 927.396 433.52C926.516 432 926.076 430.307 926.076 428.44C926.076 426.6 926.516 424.947 927.396 423.48C928.276 421.987 929.462 420.8 930.956 419.92C932.449 419.04 934.129 418.6 935.996 418.6C937.836 418.6 939.502 419.04 940.996 419.92C942.516 420.773 943.716 421.947 944.596 423.44C945.476 424.933 945.916 426.6 945.916 428.44C945.916 430.307 945.476 432 944.596 433.52C943.716 435.013 942.516 436.2 940.996 437.08C939.502 437.96 937.836 438.4 935.996 438.4ZM935.996 434.92C937.196 434.92 938.262 434.64 939.196 434.08C940.129 433.52 940.862 432.76 941.396 431.8C941.929 430.813 942.196 429.693 942.196 428.44C942.196 427.213 941.916 426.12 941.356 425.16C940.822 424.2 940.089 423.453 939.156 422.92C938.249 422.36 937.196 422.08 935.996 422.08C934.796 422.08 933.729 422.36 932.796 422.92C931.862 423.453 931.129 424.2 930.596 425.16C930.062 426.12 929.796 427.213 929.796 428.44C929.796 429.693 930.062 430.813 930.596 431.8C931.129 432.76 931.862 433.52 932.796 434.08C933.729 434.64 934.796 434.92 935.996 434.92ZM949.972 438V419H953.572V438H949.972ZM962.812 438V426.52C962.812 425.107 962.372 424 961.492 423.2C960.639 422.373 959.559 421.96 958.252 421.96C957.372 421.96 956.585 422.147 955.892 422.52C955.199 422.893 954.639 423.413 954.212 424.08C953.785 424.747 953.572 425.547 953.572 426.48L952.092 425.76C952.092 424.32 952.399 423.067 953.012 422C953.652 420.933 954.519 420.107 955.612 419.52C956.705 418.907 957.932 418.6 959.292 418.6C960.625 418.6 961.825 418.893 962.892 419.48C963.985 420.067 964.839 420.893 965.452 421.96C966.092 423.027 966.412 424.293 966.412 425.76V438H962.812ZM975.652 438V426.52C975.652 425.107 975.212 424 974.332 423.2C973.479 422.373 972.412 421.96 971.132 421.96C970.252 421.96 969.452 422.147 968.732 422.52C968.039 422.893 967.479 423.413 967.052 424.08C966.625 424.747 966.412 425.547 966.412 426.48L964.372 425.76C964.452 424.293 964.839 423.04 965.532 422C966.252 420.933 967.172 420.107 968.292 419.52C969.412 418.907 970.639 418.6 971.972 418.6C973.359 418.6 974.599 418.893 975.692 419.48C976.785 420.067 977.652 420.893 978.292 421.96C978.959 423.027 979.292 424.307 979.292 425.8V438H975.652ZM992.991 438.4C991.097 438.4 989.391 437.973 987.871 437.12C986.351 436.24 985.151 435.053 984.271 433.56C983.391 432.067 982.951 430.373 982.951 428.48C982.951 426.613 983.377 424.933 984.231 423.44C985.111 421.947 986.284 420.773 987.751 419.92C989.244 419.04 990.911 418.6 992.751 418.6C994.511 418.6 996.057 419 997.391 419.8C998.751 420.6 999.804 421.707 1000.55 423.12C1001.32 424.533 1001.71 426.133 1001.71 427.92C1001.71 428.187 1001.7 428.48 1001.67 428.8C1001.64 429.093 1001.59 429.44 1001.51 429.84H985.471V426.84H999.591L998.271 428C998.271 426.72 998.044 425.64 997.591 424.76C997.137 423.853 996.497 423.16 995.671 422.68C994.844 422.173 993.844 421.92 992.671 421.92C991.444 421.92 990.364 422.187 989.431 422.72C988.497 423.253 987.777 424 987.271 424.96C986.764 425.92 986.511 427.053 986.511 428.36C986.511 429.693 986.777 430.867 987.311 431.88C987.844 432.867 988.604 433.64 989.591 434.2C990.577 434.733 991.711 435 992.991 435C994.057 435 995.031 434.813 995.911 434.44C996.817 434.067 997.591 433.507 998.231 432.76L1000.55 435.12C999.644 436.187 998.524 437 997.191 437.56C995.884 438.12 994.484 438.4 992.991 438.4ZM1022.64 438.4C1020.77 438.4 1019.08 437.96 1017.56 437.08C1016.06 436.2 1014.88 435.013 1014 433.52C1013.14 432 1012.72 430.32 1012.72 428.48C1012.72 426.613 1013.14 424.933 1014 423.44C1014.88 421.947 1016.06 420.773 1017.56 419.92C1019.08 419.04 1020.77 418.6 1022.64 418.6C1024.1 418.6 1025.46 418.88 1026.72 419.44C1027.97 419.973 1029.05 420.76 1029.96 421.8L1027.56 424.2C1026.97 423.507 1026.25 422.987 1025.4 422.64C1024.57 422.267 1023.65 422.08 1022.64 422.08C1021.44 422.08 1020.37 422.36 1019.44 422.92C1018.5 423.453 1017.77 424.2 1017.24 425.16C1016.7 426.12 1016.44 427.227 1016.44 428.48C1016.44 429.733 1016.7 430.84 1017.24 431.8C1017.77 432.76 1018.5 433.52 1019.44 434.08C1020.37 434.64 1021.44 434.92 1022.64 434.92C1023.65 434.92 1024.57 434.747 1025.4 434.4C1026.25 434.027 1026.98 433.493 1027.6 432.8L1029.96 435.2C1029.08 436.213 1028 437 1026.72 437.56C1025.46 438.12 1024.1 438.4 1022.64 438.4ZM1041.82 438.4C1039.95 438.4 1038.27 437.96 1036.78 437.08C1035.28 436.2 1034.1 435.013 1033.22 433.52C1032.34 432 1031.9 430.307 1031.9 428.44C1031.9 426.6 1032.34 424.947 1033.22 423.48C1034.1 421.987 1035.28 420.8 1036.78 419.92C1038.27 419.04 1039.95 418.6 1041.82 418.6C1043.66 418.6 1045.32 419.04 1046.82 419.92C1048.34 420.773 1049.54 421.947 1050.42 423.44C1051.3 424.933 1051.74 426.6 1051.74 428.44C1051.74 430.307 1051.3 432 1050.42 433.52C1049.54 435.013 1048.34 436.2 1046.82 437.08C1045.32 437.96 1043.66 438.4 1041.82 438.4ZM1041.82 434.92C1043.02 434.92 1044.08 434.64 1045.02 434.08C1045.95 433.52 1046.68 432.76 1047.22 431.8C1047.75 430.813 1048.02 429.693 1048.02 428.44C1048.02 427.213 1047.74 426.12 1047.18 425.16C1046.64 424.2 1045.91 423.453 1044.98 422.92C1044.07 422.36 1043.02 422.08 1041.82 422.08C1040.62 422.08 1039.55 422.36 1038.62 422.92C1037.68 423.453 1036.95 424.2 1036.42 425.16C1035.88 426.12 1035.62 427.213 1035.62 428.44C1035.62 429.693 1035.88 430.813 1036.42 431.8C1036.95 432.76 1037.68 433.52 1038.62 434.08C1039.55 434.64 1040.62 434.92 1041.82 434.92ZM1069.23 438V426.92C1069.23 425.48 1068.78 424.293 1067.87 423.36C1066.97 422.427 1065.79 421.96 1064.35 421.96C1063.39 421.96 1062.54 422.173 1061.79 422.6C1061.05 423.027 1060.46 423.613 1060.03 424.36C1059.61 425.107 1059.39 425.96 1059.39 426.92L1057.91 426.08C1057.91 424.64 1058.23 423.36 1058.87 422.24C1059.51 421.12 1060.41 420.24 1061.55 419.6C1062.7 418.933 1063.99 418.6 1065.43 418.6C1066.87 418.6 1068.14 418.96 1069.23 419.68C1070.35 420.4 1071.23 421.347 1071.87 422.52C1072.51 423.667 1072.83 424.893 1072.83 426.2V438H1069.23ZM1055.79 438V419H1059.39V438H1055.79ZM1080.39 438V411.04H1083.99V438H1080.39ZM1075.71 422.28V419H1088.67V422.28H1075.71ZM1099.69 438.4C1097.96 438.4 1096.39 437.973 1094.97 437.12C1093.56 436.24 1092.44 435.053 1091.61 433.56C1090.81 432.067 1090.41 430.387 1090.41 428.52C1090.41 426.653 1090.81 424.973 1091.61 423.48C1092.44 421.987 1093.55 420.8 1094.93 419.92C1096.35 419.04 1097.93 418.6 1099.69 418.6C1101.13 418.6 1102.41 418.907 1103.53 419.52C1104.68 420.107 1105.6 420.933 1106.29 422C1106.99 423.04 1107.37 424.253 1107.45 425.64V431.36C1107.37 432.72 1106.99 433.933 1106.29 435C1105.63 436.067 1104.72 436.907 1103.57 437.52C1102.45 438.107 1101.16 438.4 1099.69 438.4ZM1100.29 435C1102.08 435 1103.52 434.4 1104.61 433.2C1105.71 431.973 1106.25 430.413 1106.25 428.52C1106.25 427.213 1106 426.08 1105.49 425.12C1105.01 424.133 1104.32 423.373 1103.41 422.84C1102.51 422.28 1101.45 422 1100.25 422C1099.05 422 1097.99 422.28 1097.05 422.84C1096.15 423.4 1095.43 424.173 1094.89 425.16C1094.39 426.12 1094.13 427.227 1094.13 428.48C1094.13 429.76 1094.39 430.893 1094.89 431.88C1095.43 432.84 1096.16 433.6 1097.09 434.16C1098.03 434.72 1099.09 435 1100.29 435ZM1106.01 438V432.88L1106.69 428.24L1106.01 423.64V419H1109.65V438H1106.01ZM1123.57 438.4C1121.71 438.4 1120.01 437.96 1118.49 437.08C1117 436.2 1115.81 435.013 1114.93 433.52C1114.08 432 1113.65 430.32 1113.65 428.48C1113.65 426.613 1114.08 424.933 1114.93 423.44C1115.81 421.947 1117 420.773 1118.49 419.92C1120.01 419.04 1121.71 418.6 1123.57 418.6C1125.04 418.6 1126.4 418.88 1127.65 419.44C1128.91 419.973 1129.99 420.76 1130.89 421.8L1128.49 424.2C1127.91 423.507 1127.19 422.987 1126.33 422.64C1125.51 422.267 1124.59 422.08 1123.57 422.08C1122.37 422.08 1121.31 422.36 1120.37 422.92C1119.44 423.453 1118.71 424.2 1118.17 425.16C1117.64 426.12 1117.37 427.227 1117.37 428.48C1117.37 429.733 1117.64 430.84 1118.17 431.8C1118.71 432.76 1119.44 433.52 1120.37 434.08C1121.31 434.64 1122.37 434.92 1123.57 434.92C1124.59 434.92 1125.51 434.747 1126.33 434.4C1127.19 434.027 1127.92 433.493 1128.53 432.8L1130.89 435.2C1130.01 436.213 1128.93 437 1127.65 437.56C1126.4 438.12 1125.04 438.4 1123.57 438.4ZM1137.15 438V411.04H1140.75V438H1137.15ZM1132.47 422.28V419H1145.43V422.28H1132.47ZM1157.32 438V419H1160.92V438H1157.32ZM1159.12 415.2C1158.45 415.2 1157.9 414.987 1157.48 414.56C1157.05 414.107 1156.84 413.547 1156.84 412.88C1156.84 412.24 1157.05 411.707 1157.48 411.28C1157.9 410.827 1158.45 410.6 1159.12 410.6C1159.78 410.6 1160.33 410.827 1160.76 411.28C1161.18 411.707 1161.4 412.24 1161.4 412.88C1161.4 413.547 1161.18 414.107 1160.76 414.56C1160.33 414.987 1159.78 415.2 1159.12 415.2ZM1179.66 438V426.92C1179.66 425.48 1179.21 424.293 1178.3 423.36C1177.4 422.427 1176.22 421.96 1174.78 421.96C1173.82 421.96 1172.97 422.173 1172.22 422.6C1171.48 423.027 1170.89 423.613 1170.46 424.36C1170.04 425.107 1169.82 425.96 1169.82 426.92L1168.34 426.08C1168.34 424.64 1168.66 423.36 1169.3 422.24C1169.94 421.12 1170.84 420.24 1171.98 419.6C1173.13 418.933 1174.42 418.6 1175.86 418.6C1177.3 418.6 1178.57 418.96 1179.66 419.68C1180.78 420.4 1181.66 421.347 1182.3 422.52C1182.94 423.667 1183.26 424.893 1183.26 426.2V438H1179.66ZM1166.22 438V419H1169.82V438H1166.22ZM1190.62 438V416.16C1190.62 414.747 1190.93 413.52 1191.54 412.48C1192.16 411.413 1193 410.573 1194.06 409.96C1195.16 409.347 1196.42 409.04 1197.86 409.04C1198.96 409.04 1199.9 409.227 1200.7 409.6C1201.5 409.973 1202.24 410.52 1202.9 411.24L1200.54 413.56C1200.2 413.187 1199.81 412.907 1199.38 412.72C1198.96 412.507 1198.44 412.4 1197.82 412.4C1196.68 412.4 1195.78 412.733 1195.14 413.4C1194.53 414.067 1194.22 414.987 1194.22 416.16V438H1190.62ZM1185.94 422.28V419H1200.26V422.28H1185.94ZM1211.46 438.4C1209.6 438.4 1207.92 437.96 1206.42 437.08C1204.93 436.2 1203.74 435.013 1202.86 433.52C1201.98 432 1201.54 430.307 1201.54 428.44C1201.54 426.6 1201.98 424.947 1202.86 423.48C1203.74 421.987 1204.93 420.8 1206.42 419.92C1207.92 419.04 1209.6 418.6 1211.46 418.6C1213.3 418.6 1214.97 419.04 1216.46 419.92C1217.98 420.773 1219.18 421.947 1220.06 423.44C1220.94 424.933 1221.38 426.6 1221.38 428.44C1221.38 430.307 1220.94 432 1220.06 433.52C1219.18 435.013 1217.98 436.2 1216.46 437.08C1214.97 437.96 1213.3 438.4 1211.46 438.4ZM1211.46 434.92C1212.66 434.92 1213.73 434.64 1214.66 434.08C1215.6 433.52 1216.33 432.76 1216.86 431.8C1217.4 430.813 1217.66 429.693 1217.66 428.44C1217.66 427.213 1217.38 426.12 1216.82 425.16C1216.29 424.2 1215.56 423.453 1214.62 422.92C1213.72 422.36 1212.66 422.08 1211.46 422.08C1210.26 422.08 1209.2 422.36 1208.26 422.92C1207.33 423.453 1206.6 424.2 1206.06 425.16C1205.53 426.12 1205.26 427.213 1205.26 428.44C1205.26 429.693 1205.53 430.813 1206.06 431.8C1206.6 432.76 1207.33 433.52 1208.26 434.08C1209.2 434.64 1210.26 434.92 1211.46 434.92ZM1225.44 438V419H1229.04V438H1225.44ZM1229.04 427.16L1227.68 426.56C1227.68 424.133 1228.24 422.2 1229.36 420.76C1230.48 419.32 1232.09 418.6 1234.2 418.6C1235.16 418.6 1236.03 418.773 1236.8 419.12C1237.57 419.44 1238.29 419.987 1238.96 420.76L1236.6 423.2C1236.2 422.773 1235.76 422.467 1235.28 422.28C1234.8 422.093 1234.24 422 1233.6 422C1232.27 422 1231.17 422.427 1230.32 423.28C1229.47 424.133 1229.04 425.427 1229.04 427.16ZM1241.57 438V419H1245.17V438H1241.57ZM1254.41 438V426.52C1254.41 425.107 1253.97 424 1253.09 423.2C1252.24 422.373 1251.16 421.96 1249.85 421.96C1248.97 421.96 1248.19 422.147 1247.49 422.52C1246.8 422.893 1246.24 423.413 1245.81 424.08C1245.39 424.747 1245.17 425.547 1245.17 426.48L1243.69 425.76C1243.69 424.32 1244 423.067 1244.61 422C1245.25 420.933 1246.12 420.107 1247.21 419.52C1248.31 418.907 1249.53 418.6 1250.89 418.6C1252.23 418.6 1253.43 418.893 1254.49 419.48C1255.59 420.067 1256.44 420.893 1257.05 421.96C1257.69 423.027 1258.01 424.293 1258.01 425.76V438H1254.41ZM1267.25 438V426.52C1267.25 425.107 1266.81 424 1265.93 423.2C1265.08 422.373 1264.01 421.96 1262.73 421.96C1261.85 421.96 1261.05 422.147 1260.33 422.52C1259.64 422.893 1259.08 423.413 1258.65 424.08C1258.23 424.747 1258.01 425.547 1258.01 426.48L1255.97 425.76C1256.05 424.293 1256.44 423.04 1257.13 422C1257.85 420.933 1258.77 420.107 1259.89 419.52C1261.01 418.907 1262.24 418.6 1263.57 418.6C1264.96 418.6 1266.2 418.893 1267.29 419.48C1268.39 420.067 1269.25 420.893 1269.89 421.96C1270.56 423.027 1270.89 424.307 1270.89 425.8V438H1267.25ZM1283.87 438.4C1282.14 438.4 1280.57 437.973 1279.15 437.12C1277.74 436.24 1276.62 435.053 1275.79 433.56C1274.99 432.067 1274.59 430.387 1274.59 428.52C1274.59 426.653 1274.99 424.973 1275.79 423.48C1276.62 421.987 1277.73 420.8 1279.11 419.92C1280.53 419.04 1282.11 418.6 1283.87 418.6C1285.31 418.6 1286.59 418.907 1287.71 419.52C1288.86 420.107 1289.78 420.933 1290.47 422C1291.17 423.04 1291.55 424.253 1291.63 425.64V431.36C1291.55 432.72 1291.17 433.933 1290.47 435C1289.81 436.067 1288.9 436.907 1287.75 437.52C1286.63 438.107 1285.34 438.4 1283.87 438.4ZM1284.47 435C1286.26 435 1287.7 434.4 1288.79 433.2C1289.89 431.973 1290.43 430.413 1290.43 428.52C1290.43 427.213 1290.18 426.08 1289.67 425.12C1289.19 424.133 1288.5 423.373 1287.59 422.84C1286.69 422.28 1285.63 422 1284.43 422C1283.23 422 1282.17 422.28 1281.23 422.84C1280.33 423.4 1279.61 424.173 1279.07 425.16C1278.57 426.12 1278.31 427.227 1278.31 428.48C1278.31 429.76 1278.57 430.893 1279.07 431.88C1279.61 432.84 1280.34 433.6 1281.27 434.16C1282.21 434.72 1283.27 435 1284.47 435ZM1290.19 438V432.88L1290.87 428.24L1290.19 423.64V419H1293.83V438H1290.19ZM1301.92 438V411.04H1305.52V438H1301.92ZM1297.24 422.28V419H1310.2V422.28H1297.24ZM1313.76 438V419H1317.36V438H1313.76ZM1315.56 415.2C1314.9 415.2 1314.35 414.987 1313.92 414.56C1313.5 414.107 1313.28 413.547 1313.28 412.88C1313.28 412.24 1313.5 411.707 1313.92 411.28C1314.35 410.827 1314.9 410.6 1315.56 410.6C1316.23 410.6 1316.78 410.827 1317.2 411.28C1317.63 411.707 1317.84 412.24 1317.84 412.88C1317.84 413.547 1317.63 414.107 1317.2 414.56C1316.78 414.987 1316.23 415.2 1315.56 415.2ZM1331.35 438.4C1329.48 438.4 1327.8 437.96 1326.31 437.08C1324.81 436.2 1323.63 435.013 1322.75 433.52C1321.87 432 1321.43 430.307 1321.43 428.44C1321.43 426.6 1321.87 424.947 1322.75 423.48C1323.63 421.987 1324.81 420.8 1326.31 419.92C1327.8 419.04 1329.48 418.6 1331.35 418.6C1333.19 418.6 1334.85 419.04 1336.35 419.92C1337.87 420.773 1339.07 421.947 1339.95 423.44C1340.83 424.933 1341.27 426.6 1341.27 428.44C1341.27 430.307 1340.83 432 1339.95 433.52C1339.07 435.013 1337.87 436.2 1336.35 437.08C1334.85 437.96 1333.19 438.4 1331.35 438.4ZM1331.35 434.92C1332.55 434.92 1333.61 434.64 1334.55 434.08C1335.48 433.52 1336.21 432.76 1336.75 431.8C1337.28 430.813 1337.55 429.693 1337.55 428.44C1337.55 427.213 1337.27 426.12 1336.71 425.16C1336.17 424.2 1335.44 423.453 1334.51 422.92C1333.6 422.36 1332.55 422.08 1331.35 422.08C1330.15 422.08 1329.08 422.36 1328.15 422.92C1327.21 423.453 1326.48 424.2 1325.95 425.16C1325.41 426.12 1325.15 427.213 1325.15 428.44C1325.15 429.693 1325.41 430.813 1325.95 431.8C1326.48 432.76 1327.21 433.52 1328.15 434.08C1329.08 434.64 1330.15 434.92 1331.35 434.92ZM1358.76 438V426.92C1358.76 425.48 1358.31 424.293 1357.4 423.36C1356.5 422.427 1355.32 421.96 1353.88 421.96C1352.92 421.96 1352.07 422.173 1351.32 422.6C1350.58 423.027 1349.99 423.613 1349.56 424.36C1349.14 425.107 1348.92 425.96 1348.92 426.92L1347.44 426.08C1347.44 424.64 1347.76 423.36 1348.4 422.24C1349.04 421.12 1349.94 420.24 1351.08 419.6C1352.23 418.933 1353.52 418.6 1354.96 418.6C1356.4 418.6 1357.67 418.96 1358.76 419.68C1359.88 420.4 1360.76 421.347 1361.4 422.52C1362.04 423.667 1362.36 424.893 1362.36 426.2V438H1358.76ZM1345.32 438V419H1348.92V438H1345.32ZM1384.24 438.4C1382.37 438.4 1380.69 437.96 1379.2 437.08C1377.7 436.2 1376.52 435.013 1375.64 433.52C1374.76 432 1374.32 430.307 1374.32 428.44C1374.32 426.6 1374.76 424.947 1375.64 423.48C1376.52 421.987 1377.7 420.8 1379.2 419.92C1380.69 419.04 1382.37 418.6 1384.24 418.6C1386.08 418.6 1387.74 419.04 1389.24 419.92C1390.76 420.773 1391.96 421.947 1392.84 423.44C1393.72 424.933 1394.16 426.6 1394.16 428.44C1394.16 430.307 1393.72 432 1392.84 433.52C1391.96 435.013 1390.76 436.2 1389.24 437.08C1387.74 437.96 1386.08 438.4 1384.24 438.4ZM1384.24 434.92C1385.44 434.92 1386.5 434.64 1387.44 434.08C1388.37 433.52 1389.1 432.76 1389.64 431.8C1390.17 430.813 1390.44 429.693 1390.44 428.44C1390.44 427.213 1390.16 426.12 1389.6 425.16C1389.06 424.2 1388.33 423.453 1387.4 422.92C1386.49 422.36 1385.44 422.08 1384.24 422.08C1383.04 422.08 1381.97 422.36 1381.04 422.92C1380.1 423.453 1379.37 424.2 1378.84 425.16C1378.3 426.12 1378.04 427.213 1378.04 428.44C1378.04 429.693 1378.3 430.813 1378.84 431.8C1379.37 432.76 1380.1 433.52 1381.04 434.08C1381.97 434.64 1383.04 434.92 1384.24 434.92ZM1411.65 438V426.92C1411.65 425.48 1411.2 424.293 1410.29 423.36C1409.39 422.427 1408.21 421.96 1406.77 421.96C1405.81 421.96 1404.96 422.173 1404.21 422.6C1403.47 423.027 1402.88 423.613 1402.45 424.36C1402.03 425.107 1401.81 425.96 1401.81 426.92L1400.33 426.08C1400.33 424.64 1400.65 423.36 1401.29 422.24C1401.93 421.12 1402.83 420.24 1403.97 419.6C1405.12 418.933 1406.41 418.6 1407.85 418.6C1409.29 418.6 1410.56 418.96 1411.65 419.68C1412.77 420.4 1413.65 421.347 1414.29 422.52C1414.93 423.667 1415.25 424.893 1415.25 426.2V438H1411.65ZM1398.21 438V419H1401.81V438H1398.21ZM1441.89 438V426.92C1441.89 425.48 1441.44 424.293 1440.53 423.36C1439.62 422.427 1438.45 421.96 1437.01 421.96C1436.05 421.96 1435.2 422.173 1434.45 422.6C1433.7 423.027 1433.12 423.613 1432.69 424.36C1432.26 425.107 1432.05 425.96 1432.05 426.92L1430.57 426.08C1430.57 424.64 1430.89 423.36 1431.53 422.24C1432.17 421.12 1433.06 420.24 1434.21 419.6C1435.36 418.933 1436.65 418.6 1438.09 418.6C1439.53 418.6 1440.8 418.92 1441.89 419.56C1443.01 420.2 1443.89 421.093 1444.53 422.24C1445.17 423.387 1445.49 424.707 1445.49 426.2V438H1441.89ZM1428.45 438V409.44H1432.05V438H1428.45ZM1459.04 438.4C1457.18 438.4 1455.5 437.96 1454 437.08C1452.51 436.2 1451.32 435.013 1450.44 433.52C1449.56 432 1449.12 430.307 1449.12 428.44C1449.12 426.6 1449.56 424.947 1450.44 423.48C1451.32 421.987 1452.51 420.8 1454 419.92C1455.5 419.04 1457.18 418.6 1459.04 418.6C1460.88 418.6 1462.55 419.04 1464.04 419.92C1465.56 420.773 1466.76 421.947 1467.64 423.44C1468.52 424.933 1468.96 426.6 1468.96 428.44C1468.96 430.307 1468.52 432 1467.64 433.52C1466.76 435.013 1465.56 436.2 1464.04 437.08C1462.55 437.96 1460.88 438.4 1459.04 438.4ZM1459.04 434.92C1460.24 434.92 1461.31 434.64 1462.24 434.08C1463.18 433.52 1463.91 432.76 1464.44 431.8C1464.98 430.813 1465.24 429.693 1465.24 428.44C1465.24 427.213 1464.96 426.12 1464.4 425.16C1463.87 424.2 1463.14 423.453 1462.2 422.92C1461.3 422.36 1460.24 422.08 1459.04 422.08C1457.84 422.08 1456.78 422.36 1455.84 422.92C1454.91 423.453 1454.18 424.2 1453.64 425.16C1453.11 426.12 1452.84 427.213 1452.84 428.44C1452.84 429.693 1453.11 430.813 1453.64 431.8C1454.18 432.76 1454.91 433.52 1455.84 434.08C1456.78 434.64 1457.84 434.92 1459.04 434.92ZM1477.91 438L1470.39 419H1474.15L1479.59 433.8H1478.39L1483.79 419H1485.87L1491.27 433.8H1490.07L1495.51 419H1499.27L1491.79 438H1489.67L1484.19 423.64H1485.51L1479.99 438H1477.91ZM1513.71 438V411.04H1517.31V438H1513.71ZM1509.03 422.28V419H1521.99V422.28H1509.03ZM1533.61 438.4C1531.75 438.4 1530.07 437.96 1528.57 437.08C1527.08 436.2 1525.89 435.013 1525.01 433.52C1524.13 432 1523.69 430.307 1523.69 428.44C1523.69 426.6 1524.13 424.947 1525.01 423.48C1525.89 421.987 1527.08 420.8 1528.57 419.92C1530.07 419.04 1531.75 418.6 1533.61 418.6C1535.45 418.6 1537.12 419.04 1538.61 419.92C1540.13 420.773 1541.33 421.947 1542.21 423.44C1543.09 424.933 1543.53 426.6 1543.53 428.44C1543.53 430.307 1543.09 432 1542.21 433.52C1541.33 435.013 1540.13 436.2 1538.61 437.08C1537.12 437.96 1535.45 438.4 1533.61 438.4ZM1533.61 434.92C1534.81 434.92 1535.88 434.64 1536.81 434.08C1537.75 433.52 1538.48 432.76 1539.01 431.8C1539.55 430.813 1539.81 429.693 1539.81 428.44C1539.81 427.213 1539.53 426.12 1538.97 425.16C1538.44 424.2 1537.71 423.453 1536.77 422.92C1535.87 422.36 1534.81 422.08 1533.61 422.08C1532.41 422.08 1531.35 422.36 1530.41 422.92C1529.48 423.453 1528.75 424.2 1528.21 425.16C1527.68 426.12 1527.41 427.213 1527.41 428.44C1527.41 429.693 1527.68 430.813 1528.21 431.8C1528.75 432.76 1529.48 433.52 1530.41 434.08C1531.35 434.64 1532.41 434.92 1533.61 434.92ZM1555.91 438V419H1559.51V438H1555.91ZM1559.51 427.16L1558.15 426.56C1558.15 424.133 1558.71 422.2 1559.83 420.76C1560.95 419.32 1562.56 418.6 1564.67 418.6C1565.63 418.6 1566.5 418.773 1567.27 419.12C1568.04 419.44 1568.76 419.987 1569.43 420.76L1567.07 423.2C1566.67 422.773 1566.23 422.467 1565.75 422.28C1565.27 422.093 1564.71 422 1564.07 422C1562.74 422 1561.64 422.427 1560.79 423.28C1559.94 424.133 1559.51 425.427 1559.51 427.16ZM1580.14 438.4C1578.25 438.4 1576.54 437.973 1575.02 437.12C1573.5 436.24 1572.3 435.053 1571.42 433.56C1570.54 432.067 1570.1 430.373 1570.1 428.48C1570.1 426.613 1570.53 424.933 1571.38 423.44C1572.26 421.947 1573.43 420.773 1574.9 419.92C1576.39 419.04 1578.06 418.6 1579.9 418.6C1581.66 418.6 1583.21 419 1584.54 419.8C1585.9 420.6 1586.95 421.707 1587.7 423.12C1588.47 424.533 1588.86 426.133 1588.86 427.92C1588.86 428.187 1588.85 428.48 1588.82 428.8C1588.79 429.093 1588.74 429.44 1588.66 429.84H1572.62V426.84H1586.74L1585.42 428C1585.42 426.72 1585.19 425.64 1584.74 424.76C1584.29 423.853 1583.65 423.16 1582.82 422.68C1581.99 422.173 1580.99 421.92 1579.82 421.92C1578.59 421.92 1577.51 422.187 1576.58 422.72C1575.65 423.253 1574.93 424 1574.42 424.96C1573.91 425.92 1573.66 427.053 1573.66 428.36C1573.66 429.693 1573.93 430.867 1574.46 431.88C1574.99 432.867 1575.75 433.64 1576.74 434.2C1577.73 434.733 1578.86 435 1580.14 435C1581.21 435 1582.18 434.813 1583.06 434.44C1583.97 434.067 1584.74 433.507 1585.38 432.76L1587.7 435.12C1586.79 436.187 1585.67 437 1584.34 437.56C1583.03 438.12 1581.63 438.4 1580.14 438.4ZM1600.86 438.4C1599.13 438.4 1597.56 437.973 1596.14 437.12C1594.73 436.24 1593.61 435.053 1592.78 433.56C1591.98 432.067 1591.58 430.387 1591.58 428.52C1591.58 426.653 1591.98 424.973 1592.78 423.48C1593.61 421.987 1594.72 420.8 1596.1 419.92C1597.52 419.04 1599.1 418.6 1600.86 418.6C1602.3 418.6 1603.58 418.907 1604.7 419.52C1605.85 420.107 1606.77 420.933 1607.46 422C1608.16 423.04 1608.54 424.253 1608.62 425.64V431.36C1608.54 432.72 1608.16 433.933 1607.46 435C1606.8 436.067 1605.89 436.907 1604.74 437.52C1603.62 438.107 1602.33 438.4 1600.86 438.4ZM1601.46 435C1603.25 435 1604.69 434.4 1605.78 433.2C1606.88 431.973 1607.42 430.413 1607.42 428.52C1607.42 427.213 1607.17 426.08 1606.66 425.12C1606.18 424.133 1605.49 423.373 1604.58 422.84C1603.68 422.28 1602.62 422 1601.42 422C1600.22 422 1599.16 422.28 1598.22 422.84C1597.32 423.4 1596.6 424.173 1596.06 425.16C1595.56 426.12 1595.3 427.227 1595.3 428.48C1595.3 429.76 1595.56 430.893 1596.06 431.88C1596.6 432.84 1597.33 433.6 1598.26 434.16C1599.2 434.72 1600.26 435 1601.46 435ZM1607.18 438V432.88L1607.86 428.24L1607.18 423.64V419H1610.82V438H1607.18ZM1624.75 438.4C1622.88 438.4 1621.19 437.96 1619.67 437.08C1618.17 436.2 1616.99 435.013 1616.11 433.52C1615.25 432 1614.83 430.32 1614.83 428.48C1614.83 426.613 1615.25 424.933 1616.11 423.44C1616.99 421.947 1618.17 420.773 1619.67 419.92C1621.19 419.04 1622.88 418.6 1624.75 418.6C1626.21 418.6 1627.57 418.88 1628.83 419.44C1630.08 419.973 1631.16 420.76 1632.07 421.8L1629.67 424.2C1629.08 423.507 1628.36 422.987 1627.51 422.64C1626.68 422.267 1625.76 422.08 1624.75 422.08C1623.55 422.08 1622.48 422.36 1621.55 422.92C1620.61 423.453 1619.88 424.2 1619.35 425.16C1618.81 426.12 1618.55 427.227 1618.55 428.48C1618.55 429.733 1618.81 430.84 1619.35 431.8C1619.88 432.76 1620.61 433.52 1621.55 434.08C1622.48 434.64 1623.55 434.92 1624.75 434.92C1625.76 434.92 1626.68 434.747 1627.51 434.4C1628.36 434.027 1629.09 433.493 1629.71 432.8L1632.07 435.2C1631.19 436.213 1630.11 437 1628.83 437.56C1627.57 438.12 1626.21 438.4 1624.75 438.4ZM1649.08 438V426.92C1649.08 425.48 1648.62 424.293 1647.72 423.36C1646.81 422.427 1645.64 421.96 1644.2 421.96C1643.24 421.96 1642.38 422.173 1641.64 422.6C1640.89 423.027 1640.3 423.613 1639.88 424.36C1639.45 425.107 1639.24 425.96 1639.24 426.92L1637.76 426.08C1637.76 424.64 1638.08 423.36 1638.72 422.24C1639.36 421.12 1640.25 420.24 1641.4 419.6C1642.54 418.933 1643.84 418.6 1645.28 418.6C1646.72 418.6 1647.98 418.92 1649.08 419.56C1650.2 420.2 1651.08 421.093 1651.72 422.24C1652.36 423.387 1652.68 424.707 1652.68 426.2V438H1649.08ZM1635.64 438V409.44H1639.24V438H1635.64ZM1674.55 438.4C1672.68 438.4 1671 437.96 1669.51 437.08C1668.02 436.2 1666.83 435.013 1665.95 433.52C1665.07 432 1664.63 430.307 1664.63 428.44C1664.63 426.6 1665.07 424.947 1665.95 423.48C1666.83 421.987 1668.02 420.8 1669.51 419.92C1671 419.04 1672.68 418.6 1674.55 418.6C1676.39 418.6 1678.06 419.04 1679.55 419.92C1681.07 420.773 1682.27 421.947 1683.15 423.44C1684.03 424.933 1684.47 426.6 1684.47 428.44C1684.47 430.307 1684.03 432 1683.15 433.52C1682.27 435.013 1681.07 436.2 1679.55 437.08C1678.06 437.96 1676.39 438.4 1674.55 438.4ZM1674.55 434.92C1675.75 434.92 1676.82 434.64 1677.75 434.08C1678.68 433.52 1679.42 432.76 1679.95 431.8C1680.48 430.813 1680.75 429.693 1680.75 428.44C1680.75 427.213 1680.47 426.12 1679.91 425.16C1679.38 424.2 1678.64 423.453 1677.71 422.92C1676.8 422.36 1675.75 422.08 1674.55 422.08C1673.35 422.08 1672.28 422.36 1671.35 422.92C1670.42 423.453 1669.68 424.2 1669.15 425.16C1668.62 426.12 1668.35 427.213 1668.35 428.44C1668.35 429.693 1668.62 430.813 1669.15 431.8C1669.68 432.76 1670.42 433.52 1671.35 434.08C1672.28 434.64 1673.35 434.92 1674.55 434.92ZM1696.17 438.4C1694.62 438.4 1693.22 438.053 1691.97 437.36C1690.74 436.64 1689.78 435.653 1689.09 434.4C1688.39 433.147 1688.05 431.693 1688.05 430.04V419H1691.65V429.88C1691.65 430.92 1691.82 431.827 1692.17 432.6C1692.54 433.347 1693.07 433.92 1693.77 434.32C1694.46 434.72 1695.27 434.92 1696.21 434.92C1697.62 434.92 1698.73 434.48 1699.53 433.6C1700.33 432.693 1700.73 431.453 1700.73 429.88V419H1704.33V430.04C1704.33 431.693 1703.98 433.147 1703.29 434.4C1702.59 435.653 1701.63 436.64 1700.41 437.36C1699.21 438.053 1697.79 438.4 1696.17 438.4ZM1712.07 438V411.04H1715.67V438H1712.07ZM1707.39 422.28V419H1720.35V422.28H1707.39Z" fill="black"/>
</g>
<defs>
<clipPath id="clip0_1_113">
<rect width="1271" height="688" fill="white" transform="scale(2)"/>
</clipPath>
</defs>
</svg>
